<svg width="128" height="128" viewBox="0 0 128 128" fill="none" xmlns="http://www.w3.org/2000/svg"><path d="M49.4123 102.208H72.7209V109.323H42.3253V19.677H49.4123v82.531z" fill="#3b1d8f"/><path d="M12.0871 19.677H5V109.323H12.0871V19.677z" fill="#3b1d8f"/><path d="M85.3201 64.5791c0 20.7119 16.8519 37.6289 37.4829 37.6289V109.323C98.0768 109.323 78.0756 89.2436 78.0756 64.5791 78.2331 39.7565 98.2343 19.677 122.96 19.677V26.7918C102.172 26.7918 85.3201 43.7091 85.3201 64.5791z" fill="#3b1d8f"/><path d="M128 64.421C128 67.2669 125.795 69.4804 122.96 69.4804 120.125 69.4804 117.921 67.2669 117.921 64.421 117.921 61.5751 120.125 59.3616 122.96 59.3616 125.638 59.3616 128 61.7332 128 64.421z" fill="#3b1d8f"/></svg>