<svg xmlns="http://www.w3.org/2000/svg" viewBox="0 0 140 140"><linearGradient id="A" gradientUnits="userSpaceOnUse" x1="45.196" y1="69.999" x2="115" y2="69.999"><stop offset="0" stop-color="#e1d8ff"/><stop offset="1" stop-color="#f4ecff"/></linearGradient><path d="M114 104.9L92.7 93.6c-1.2-.6-2-1.7-2.4-2.9l-.5-1.4c-.3-1.1-.8-2.3-1.9-2.5-.3-.1-.8-.7-.8-1.1l-.6-6.7c0-.6.2-1.1.5-1.4 1.8-2.1 2.7-4.6 3.2-7.4.2-1.4.9-2.7 1.3-4.1l1.5-7.8c.2-1 .1-1.8-1-2.2-.3-.1-.6-.6-.6-1.4V40c-.2-3.6-2.1-6.3-4.8-8.2-5.1-3.7-14.2-2-11.2-7.9.2-.4.1-1-1.1-.5-4.6 1.7-16.7 6.1-19.8 8.5-2.7 2.1-4.5 4.7-4.8 8.2v14.7c0 .6-.3 1.3-.6 1.4-1.1.4-1.2 1.2-1 2.2l1.5 7.8c.4 1.4 1.1 2.7 1.3 4.1.4 2.8 1.4 5.3 3.2 7.4.3.4.5.9.5 1.4l-.6 6.5c-.1.4-.5 1-.8 1.1-1 .3-1.5 1.4-1.9 2.5l-.5 1.4c-.4 1.2-1.3 2.3-2.4 2.9L27 104.9a1.78 1.78 0 0 0-1 1.6v8.6a1.79 1.79 0 0 0 1.8 1.8h85.4a1.79 1.79 0 0 0 1.8-1.8v-8.6c0-.6-.4-1.3-1-1.6z" fill="url(#A)"/><linearGradient id="B" gradientUnits="userSpaceOnUse" x1="65.092" y1="72.25" x2="75.055" y2="72.25"><stop offset="0" stop-color="#bba6ff"/><stop offset="1" stop-color="#cdbbef"/></linearGradient><path d="M65.6 70c-1.4 0-2.2 1.5-1.1 2.4 1.6 1.3 3.6 2.1 5.8 2.1s4.2-.8 5.8-2.1c1.1-.9.3-2.4-1.1-2.4h0c-.4 0-.9.2-1.2.4a6.19 6.19 0 0 1-6.9 0c-.4-.2-.8-.4-1.3-.4h0 0z" fill-rule="evenodd" fill="url(#B)"/><linearGradient id="C" gradientUnits="userSpaceOnUse" x1="56.593" y1="133.593" x2="89.093" y2="87.593"><stop offset="0" stop-color="#bca7ff"/><stop offset="1" stop-color="#4614e8"/></linearGradient><path d="M80 127.1l-6.1-21.5 3.5-6.9a1.06 1.06 0 0 0-.1-1.2c-.2-.4-.6-.6-1.1-.6H63.8c-.4 0-.8.2-1.1.6-.2.4-.2.8-.1 1.2l3.5 6.9-6.1 21.5c-.1.5 0 1 .4 1.3l8.7 7.3c.2.2.5.3.8.3s.6-.1.8-.3l8.8-7.3a1.3 1.3 0 0 0 .5-1.3h0z" fill="url(#C)"/></svg>