<svg xmlns="http://www.w3.org/2000/svg" viewBox="0 0 140 140"><linearGradient id="A" gradientUnits="userSpaceOnUse" x1="63.163" y1="70" x2="210.614" y2="70"><stop offset="0" stop-color="#e1d8ff"/><stop offset="1" stop-color="#f4ecff"/></linearGradient><path d="M116.6 70c0 26-21 47-47 47s-47-21-47-47 21-47 47-47 47 21 47 47z" fill="url(#A)"/><linearGradient id="B" gradientUnits="userSpaceOnUse" x1="75.268" y1="51.775" x2="75.268" y2="80.746"><stop offset="0" stop-color="#cbb8f3"/><stop offset="1" stop-color="#bda9ff"/></linearGradient><path d="M82.1 76l-9.5-7.1V54.4c0-1.5-1.2-2.6-2.6-2.6a2.65 2.65 0 0 0-2.6 2.6v15.8a2.61 2.61 0 0 0 1.1 2.1L79 80.2c.5.3 1 .5 1.6.5a2.61 2.61 0 0 0 2.1-1.1c.8-1.1.6-2.7-.6-3.6h0z" fill="url(#B)"/><linearGradient id="C" gradientUnits="userSpaceOnUse" x1="70" y1="36" x2="70" y2="104"><stop offset="0" stop-color="#ccbaf1"/><stop offset="1" stop-color="#bca7ff"/></linearGradient><path d="M70 36c-18.7 0-34 15.3-34 34s15.3 34 34 34 34-15.3 34-34-15.3-34-34-34zm0 62.7c-15.8 0-28.7-12.9-28.7-28.7S54.2 41.3 70 41.3 98.7 54.2 98.7 70 85.8 98.7 70 98.7z" fill="url(#C)"/><linearGradient id="D" gradientUnits="userSpaceOnUse" x1="118.627" y1="13.957" x2="68.735" y2="97.234"><stop offset="0" stop-color="#4614e8"/><stop offset="1" stop-color="#bca7ff"/></linearGradient><path d="M85,80.3c12.2-3.1,21.3-15.9,21.3-31.3S97.2,20.8,85,17.7c2.2-0.5,4.5-0.7,6.7-0.7c17.7,0,32,14.3,32,32   s-14.3,32-32,32C89.5,81,87.2,80.8,85,80.3z" fill-rule="evenodd" fill="url(#D)"/></svg>