<svg xmlns="http://www.w3.org/2000/svg" fill="none"><circle cx="64" cy="70" r="47" fill="url(#A)"/><g clip-path="url(#C)"><path d="M113.94 67.617A19.05 19.05 0 0 0 100.38 62a19.05 19.05 0 0 0-13.56 5.617c-6.703 6.702-7.536 19.312-1.804 26.952l15.364 22.188L115.721 94.6c5.755-7.671 4.922-20.281-1.781-26.983zM100.557 88a7.01 7.01 0 0 1-7-7 7.01 7.01 0 0 1 7-7 7.01 7.01 0 0 1 7 7 7.01 7.01 0 0 1-7 7z" fill="url(#B)"/></g><defs><linearGradient id="A" x1="37.275" y1="23" x2="111" y2="23" gradientUnits="userSpaceOnUse"><stop stop-color="#e1d8ff"/><stop offset="1" stop-color="#f4ecff"/></linearGradient><linearGradient id="B" x1="81.203" y1="116.757" x2="120.716" y2="40.374" gradientUnits="userSpaceOnUse"><stop stop-color="#bca7ff"/><stop offset="1" stop-color="#4614e8"/></linearGradient><clipPath id="C"><path fill="#fff" transform="translate(73 62)" d="M0 0h54.757v54.757H0z"/></clipPath></defs></svg>