<svg xmlns="http://www.w3.org/2000/svg" fill="none"><circle opacity=".7" cx="55" cy="70" r="47" fill="url(#A)"/><circle cx="55" cy="70" r="37.5" stroke="#cdbbef" stroke-opacity=".3" stroke-width="3"/><circle opacity=".7" cx="85" cy="70" r="47" fill="url(#B)"/><circle cx="86" cy="70" r="37.5" stroke="#cdbbef" stroke-width="3"/><path d="M97.359 63.203c-1.016-.391-2.148-.742-3.398-1.055-1.078-.266-2.359-.508-3.844-.727-1.469-.234-3.094-.352-4.875-.352-2.672 0-4.625.211-5.859.633s-1.852 1.133-1.852 2.133c0 .562.188 1.031.563 1.406.391.375.945.695 1.664.961.719.25 1.602.469 2.648.656l3.586.539c3.219.453 5.906.977 8.063 1.57 2.172.594 3.914 1.312 5.227 2.156s2.242 1.844 2.789 3c.563 1.141.844 2.492.844 4.055 0 3.297-1.195 5.813-3.586 7.547-2.391 1.719-5.977 2.742-10.758 3.07v4.828H82.29v-4.758c-2.594-.125-4.82-.398-6.68-.82-1.844-.422-3.367-.867-4.57-1.336-1.422-.547-2.594-1.148-3.516-1.805l4.266-6.187c1.016.484 2.172.922 3.469 1.312 1.109.328 2.422.625 3.938.891 1.531.266 3.234.398 5.109.398 1.375 0 2.656-.039 3.844-.117 1.203-.078 2.234-.234 3.094-.469.875-.234 1.563-.555 2.063-.961s.75-.937.75-1.594c0-.562-.18-1-.539-1.312-.359-.328-.937-.602-1.734-.82-.781-.234-1.789-.437-3.023-.609l-4.477-.656c-2.937-.469-5.406-1.008-7.406-1.617-1.984-.625-3.586-1.359-4.805-2.203-1.219-.859-2.094-1.852-2.625-2.977-.516-1.125-.773-2.43-.773-3.914 0-1.391.242-2.687.727-3.891.484-1.219 1.266-2.289 2.344-3.211 1.078-.938 2.477-1.703 4.195-2.297 1.734-.594 3.852-.969 6.352-1.125v-4.781h6.281v4.828c2.281.172 4.234.445 5.859.82 1.641.359 3 .734 4.078 1.125 1.25.453 2.289.945 3.117 1.477l-4.266 6.188z" fill="url(#C)"/><defs><linearGradient id="A" x1="28.275" y1="23" x2="102" y2="23" gradientUnits="userSpaceOnUse"><stop stop-color="#e1d8ff"/><stop offset="1" stop-color="#f4ecff"/></linearGradient><linearGradient id="B" x1="58.275" y1="23" x2="132" y2="23" gradientUnits="userSpaceOnUse"><stop stop-color="#e1d8ff"/><stop offset="1" stop-color="#f4ecff"/></linearGradient><linearGradient id="C" x1="66" y1="89" x2="76.493" y2="45.56" gradientUnits="userSpaceOnUse"><stop stop-color="#bca7ff"/><stop offset="1" stop-color="#4614e8"/></linearGradient></defs></svg>