<svg width="75" height="54" viewBox="0 0 75 54" fill="none" xmlns="http://www.w3.org/2000/svg"><path d="M26.098 8H49.902C55.4973 8 60 12.5027 60 18.098V41.902C60 47.4973 55.4973 52 49.902 52H26.098C20.5027 52 16 47.4973 16 41.902V18.098C16 12.5027 20.5027 8 26.098 8z" fill="url(#paint0_linear)"/><path d="M22.71 24.6689V35.3829C22.71 37.7222 24.6093 39.6142 26.9413 39.6142H39.8333C42.1726 39.6142 44.0646 37.7149 44.0646 35.3829V24.6689C44.0646 22.3295 42.1653 20.4375 39.8333 20.4375H26.9486C24.6093 20.4302 22.71 22.3295 22.71 24.6689z" fill="#fff"/><path d="M50.5255 21.8013 45.6708 25.8053C45.2381 26.1647 44.9888 26.6927 44.9888 27.25V32.794C44.9888 33.3513 45.2308 33.872 45.6561 34.2313L50.5108 38.3087C51.6181 39.2327 53.2975 38.448 53.2975 37.0107V23.1067C53.3048 21.6767 51.6328 20.8847 50.5255 21.8013z" fill="#fff"/><defs><linearGradient id="paint0_linear" x1="37.8717" y1="8.91882" x2="38.1342" y2="52.0503" gradientUnits="userSpaceOnUse"><stop stop-color="#5df777"/><stop offset="1" stop-color="#0abc28"/></linearGradient></defs></svg>