<svg width="75" height="54" viewBox="0 0 75 54" fill="none" xmlns="http://www.w3.org/2000/svg"><path d="M37.0003 8.00428C25.1116 7.76986 15.2739 17.1977 15.0024 29.0855 15.0335 35.1369 17.713 40.8713 22.335 44.7773V51.0834C22.335 51.5896 22.7454 52 23.2516 52 23.4234 52 23.5917 51.9517 23.7374 51.8607L28.8464 48.6692C31.4494 49.6648 34.2134 50.1724 37.0003 50.1669 48.889 50.4013 58.7267 40.9735 58.9981 29.0856 58.7267 17.1977 48.889 7.76986 37.0003 8.00428z" fill="#2196f3"/><path d="M51.4819 23.036C51.2091 22.6704 50.7091 22.5611 50.3087 22.7793L40.7763 27.9763 34.8461 22.8911C34.4824 22.5794 33.94 22.6001 33.6014 22.9388L22.6025 33.9377C22.2456 34.2967 22.2473 34.8771 22.6064 35.234 22.8935 35.5193 23.3337 35.5826 23.6895 35.3896L33.2219 30.1926 39.1576 35.2796C39.5213 35.5914 40.0637 35.5706 40.4023 35.2319L51.4013 24.233C51.7218 23.9095 51.7561 23.3996 51.4819 23.036z" fill="#fafafa"/></svg>