<svg width="75" height="54" viewBox="0 0 75 54" fill="none" xmlns="http://www.w3.org/2000/svg"><path d="M58.6213 34.4662C57.9001 33.4694 57.5659 32.252 57.5673 31.0217 57.5674 31.0146 57.5674 31.0074 57.5674 31.0002c0-10.9573-8.8827-19.84-19.8401-19.84C35.3303 11.1602 33.0335 11.5868 30.9066 12.3664 29.756 12.7882 28.4956 12.8692 27.3159 12.5369 26.2739 12.2434 25.1608 12.1196 24.0077 12.199 19.1639 12.5323 15.2643 16.502 15.0133 21.3508 14.8935 23.6652 15.5876 25.8122 16.8333 27.5341 17.5545 28.5308 17.8887 29.7482 17.8872 30.9785 17.8872 30.9857 17.8872 30.9928 17.8872 31.0001 17.8872 41.9574 26.7698 50.8401 37.7272 50.8401 40.1244 50.8401 42.4212 50.4135 44.5479 49.6338 45.6985 49.2121 46.959 49.131 48.1387 49.4633 49.1807 49.7568 50.2936 49.8806 51.4469 49.8013 56.2907 49.4679 60.1901 45.4983 60.4412 40.6496 60.5611 38.3352 59.867 36.1882 58.6213 34.4662zM38.4536 27.4432C42.4541 28.3945 48.4993 29.8321 48.4993 36.491 48.4993 39.7713 46.8839 42.2737 43.9503 43.537 41.857 44.4385 39.4879 44.5602 37.4464 44.5602 31.1728 44.5602 27.2105 39.682 27.0449 39.4743 26.0175 38.1857 26.2289 36.308 27.5176 35.2807 28.806 34.2528 30.6836 34.4648 31.7113 35.7531 31.7204 35.7641 34.09 38.4855 37.4464 38.5919 41.4881 38.7201 42.4115 37.5176 42.5309 36.4911 42.6768 35.2375 41.5616 34.3171 37.0725 33.2496 33.2675 32.3447 27.5167 30.9772 27.5167 24.8445 27.5167 22.9348 28.2934 16.7036 38.2885 16.7036 44.5997 16.7036 48.325 21.6726 48.4806 21.8841 49.4567 23.2121 49.1717 25.08 47.8438 26.056 46.5216 27.0278 44.6655 26.7497 43.6856 25.4379 43.6153 25.3476 41.4829 22.9751 38.2885 22.6719 35.8714 22.4423 33.485 23.3139 33.485 24.6015 33.485 25.9657 34.1703 26.4246 38.4536 27.4432z" fill="#00aaf2"/></svg>