<svg width="75" height="54" viewBox="0 0 75 54" fill="none" xmlns="http://www.w3.org/2000/svg"><path d="M15.7772 32.2149 25.9157 35.9989 29.8399 48.6191C30.091 49.4274 31.0793 49.7262 31.7354 49.1898L37.3867 44.5827C37.9791 44.1 38.8229 44.076 39.442 44.5254L49.635 51.9257C50.3368 52.4358 51.3311 52.0513 51.5071 51.2032L58.974 15.2859C59.1662 14.3595 58.2559 13.5868 57.3739 13.9279L15.7653 29.9793C14.7385 30.3753 14.7474 31.829 15.7772 32.2149zM29.2074 33.9846 49.0218 21.7809C49.3779 21.5622 49.7443 22.0437 49.4385 22.3274L33.0859 37.5279C32.5111 38.0629 32.1403 38.779 32.0353 39.5561L31.4783 43.6842C31.4045 44.2354 30.6303 44.2901 30.4782 43.7567L28.3358 36.229C28.0904 35.3704 28.448 34.4533 29.2074 33.9846z" fill="#00c2ff"/></svg>