<svg width="75" height="54" viewBox="0 0 75 54" fill="none" xmlns="http://www.w3.org/2000/svg"><path d="M37.005 11H36.995C25.9675 11 17 19.97 17 31 17 35.375 18.41 39.43 20.8075 42.7225L18.315 50.1525 26.0025 47.695C29.165 49.79 32.9375 51 37.005 51 48.0325 51 57 42.0275 57 31 57 19.9725 48.0325 11 37.005 11z" fill="#4caf50"/><path d="M48.6424 39.2425C48.1599 40.605 46.2449 41.735 44.7174 42.065 43.6724 42.2875 42.3074 42.465 37.7124 40.56 31.8349 38.125 28.0499 32.1525 27.7549 31.765 27.4724 31.3775 25.3799 28.6025 25.3799 25.7325 25.3799 22.8625 26.8374 21.465 27.4249 20.865 27.9074 20.3725 28.7049 20.1475 29.4699 20.1475 29.7174 20.1475 29.9399 20.16 30.1399 20.17 30.7274 20.195 31.0224 20.23 31.4099 21.1575 31.8924 22.32 33.0674 25.19 33.2074 25.485 33.3499 25.78 33.4924 26.18 33.2924 26.5675 33.1049 26.9675 32.9399 27.145 32.6449 27.485 32.3499 27.825 32.0699 28.085 31.7749 28.45 31.5049 28.7675 31.1999 29.1075 31.5399 29.695 31.8799 30.27 33.0549 32.1875 34.7849 33.7275 37.0174 35.715 38.8274 36.35 39.4749 36.62 39.9574 36.82 40.5324 36.7725 40.8849 36.3975 41.3324 35.915 41.8849 35.115 42.4474 34.3275 42.8474 33.7625 43.3524 33.6925 43.8824 33.8925 44.4224 34.08 47.2799 35.4925 47.8674 35.785 48.4549 36.08 48.8424 36.22 48.9849 36.4675 49.1249 36.715 49.1249 37.8775 48.6424 39.2425z" fill="#fafafa"/></svg>