<svg width="110" height="54" viewBox="0 0 110 54" fill="none" xmlns="http://www.w3.org/2000/svg"><path fill-rule="evenodd" clip-rule="evenodd" d="M84.7193 27.2974C85.0748 27.9136 85.1911 28.6148 85.2295 29.4031L85.2799 30.4538V37.8007L85.3315 38.8524C85.4346 40.5701 86.6953 41.8401 88.4179 41.9482L89.4591 42V30.4538L89.5107 29.4031C89.5535 28.6236 89.6687 27.9092 90.0297 27.2885 90.3975 26.6519 90.9255 26.1237 91.5608 25.757 92.196 25.3902 92.9161 25.1979 93.6487 25.1992 94.3813 25.2006 95.1007 25.3955 95.7346 25.7646 96.3685 26.1336 96.8946 26.6638 97.2601 27.3018 97.6156 27.9181 97.7264 28.6325 97.7692 29.4031L97.8208 30.4504V37.8007L97.8724 38.8524C97.9799 40.5789 99.2307 41.849 100.959 41.9482L102 42V29.4031C102 27.1756 101.12 25.0393 99.5524 23.4639 97.9852 21.8886 95.8595 21.0031 93.6427 21.0022 92.4562 21.001 91.2831 21.2541 90.2018 21.7448 89.1205 22.2355 88.1558 22.9525 87.3723 23.8477 86.5884 22.9528 85.6237 22.2361 84.5424 21.7452 83.4612 21.2544 82.2883 21.0007 81.1018 21.0011 79.3661 21.0011 77.7554 21.5303 76.4212 22.4442 75.6071 21.5314 73.7858 21.0011 72.7401 21.0011V42L73.7858 41.9482C75.5347 41.8324 76.7987 40.5965 76.8667 38.8524L76.9226 37.8007V30.4538L76.9742 29.4031C77.0181 28.6104 77.1278 27.9136 77.4844 27.2929 77.8525 26.6567 78.3803 26.1286 79.0151 25.7614 79.6499 25.3943 80.3694 25.2008 81.1018 25.2004 81.8348 25.2006 82.5549 25.3944 83.1898 25.7625 83.8247 26.1305 84.3522 26.6598 84.7193 27.2974v0zM13.1792 41.9493 14.2248 42H29.8982L29.8466 40.9526C29.7051 39.2262 28.4883 37.9649 26.7646 37.8525L25.719 37.8007H16.3161L28.8526 25.1993 28.801 24.1531C28.7198 22.409 27.4514 21.1488 25.719 21.0529L24.6734 21.0055 9 21.0011 9.05157 22.0518C9.18872 23.7617 10.4231 25.0494 12.1325 25.1486L13.1792 25.2004h9.4029L10.0456 37.8018 10.0972 38.8524C10.2003 40.5833 11.4434 41.8368 13.1792 41.9482V41.9493zM68.6377 24.0748C69.6082 25.0498 70.3781 26.2072 70.9033 27.4812 71.4285 28.7551 71.6988 30.1205 71.6988 31.4995 71.6988 32.8784 71.4285 34.2438 70.9033 35.5177 70.3781 36.7917 69.6082 37.9491 68.6377 38.9241 66.6771 40.8926 64.0188 41.9984 61.2471 41.9984 58.4754 41.9984 55.8171 40.8926 53.8564 38.9241 49.776 34.824 49.776 28.1749 53.8564 24.0748 54.826 23.1002 55.9771 22.327 57.2441 21.7994 58.5111 21.2719 59.869 21.0002 61.2405 21 62.6142 20.999 63.9746 21.2702 65.2439 21.798 66.5132 22.3258 67.6664 23.0999 68.6377 24.0759V24.0748zM65.6808 27.0482C66.8561 28.2301 67.5164 29.8325 67.5164 31.5033 67.5164 33.1741 66.8561 34.7765 65.6808 35.9584 64.5046 37.1394 62.9099 37.8028 61.2471 37.8028 59.5843 37.8028 57.9895 37.1394 56.8133 35.9584 55.638 34.7765 54.9778 33.1741 54.9778 31.5033 54.9778 29.8325 55.638 28.2301 56.8133 27.0482 57.9895 25.8672 59.5843 25.2038 61.2471 25.2038 62.9099 25.2038 64.5046 25.8672 65.6808 27.0482v0zM39.3099 21C40.6814 21.0004 42.0394 21.2722 43.3064 21.8 44.5734 22.3277 45.7245 23.1011 46.694 24.0759 50.7755 28.1749 50.7755 34.8251 46.694 38.9241 44.7333 40.8926 42.075 41.9984 39.3033 41.9984 36.5316 41.9984 33.8733 40.8926 31.9126 38.9241 27.8322 34.824 27.8322 28.1749 31.9126 24.0748 32.8822 23.1002 34.0333 22.327 35.3003 21.7994 36.5673 21.2719 37.9252 21.0002 39.2967 21H39.3099zM43.737 27.046C44.9127 28.2279 45.5731 29.8306 45.5731 31.5017 45.5731 33.1727 44.9127 34.7754 43.737 35.9573 42.5608 37.1383 40.9661 37.8017 39.3033 37.8017 37.6405 37.8017 36.0458 37.1383 34.8695 35.9573 33.6942 34.7754 33.034 33.173 33.034 31.5022 33.034 29.8314 33.6942 28.229 34.8695 27.0471 36.0458 25.8661 37.6405 25.2027 39.3033 25.2027 40.9661 25.2027 42.5608 25.8661 43.737 27.0471V27.046z" fill="#2d8cff"/></svg>