<svg width="170" height="170" viewBox="0 0 170 170" fill="none" xmlns="http://www.w3.org/2000/svg"><path d="M48.1668 22.6667H120.417C124.383 22.6667 127.5 25.7834 127.5 29.7501V138.833C127.5 142.8 124.383 145.917 120.417 145.917H48.1668C44.2002 145.917 41.0835 142.8 41.0835 138.833V29.7501C41.0835 25.7834 44.2002 22.6667 48.1668 22.6667z" fill="url(#paint0_linear)"/><path d="M116.875 46.0417H55.9585" stroke="url(#paint1_linear)" stroke-width="3" stroke-linecap="round"/><path d="M116.875 58.7917H55.9585" stroke="url(#paint2_linear)" stroke-width="3" stroke-linecap="round"/><path d="M116.875 71.5417H55.9585" stroke="url(#paint3_linear)" stroke-width="3" stroke-linecap="round"/><path d="M116.875 84.2917H55.9585" stroke="url(#paint4_linear)" stroke-width="3" stroke-linecap="round"/><path d="M81.4585 125.375h-25.5" stroke="url(#paint5_linear)" stroke-width="3" stroke-linecap="round"/><path d="M26.9168 42.5H55.2502C59.2168 42.5 62.3335 45.6167 62.3335 49.5833V77.9167C62.3335 81.8833 59.2168 85 55.2502 85H26.9168C22.9502 85 19.8335 81.8833 19.8335 77.9167V49.5833C19.8335 45.6167 22.9502 42.5 26.9168 42.5z" fill="url(#paint6_linear)"/><path d="M49.5836 62.7583V66.2999C49.5836 66.5833 49.3003 66.7249 49.1586 66.7249H42.6419v6.5167C42.6419 73.5249 42.3586 73.6666 42.2169 73.6666H38.6753C38.3919 73.6666 38.2503 73.3833 38.2503 73.2416V66.7249H31.7336C31.4503 66.7249 31.3086 66.4416 31.3086 66.2999V62.7583C31.3086 62.4749 31.5919 62.3333 31.7336 62.3333H38.2503V55.8166C38.2503 55.5333 38.5336 55.3916 38.6753 55.3916H42.2169C42.5003 55.3916 42.6419 55.6749 42.6419 55.8166v6.5167h6.5167C49.3003 62.1916 49.5836 62.4749 49.5836 62.7583z" fill="#fff"/><defs><linearGradient id="paint0_linear" x1="59.7224" y1="84.2917" x2="127.5" y2="84.2917" gradientUnits="userSpaceOnUse"><stop stop-color="#e1d8ff"/><stop offset="1" stop-color="#f4ecff"/></linearGradient><linearGradient id="paint1_linear" x1="-nan" y1="-nan" x2="-nan" y2="-nan" gradientUnits="userSpaceOnUse"><stop stop-color="#bba6ff"/><stop offset="1" stop-color="#cdbbef"/></linearGradient><linearGradient id="paint2_linear" x1="-nan" y1="-nan" x2="-nan" y2="-nan" gradientUnits="userSpaceOnUse"><stop stop-color="#bba6ff"/><stop offset="1" stop-color="#cdbbef"/></linearGradient><linearGradient id="paint3_linear" x1="-nan" y1="-nan" x2="-nan" y2="-nan" gradientUnits="userSpaceOnUse"><stop stop-color="#bba6ff"/><stop offset="1" stop-color="#cdbbef"/></linearGradient><linearGradient id="paint4_linear" x1="-nan" y1="-nan" x2="-nan" y2="-nan" gradientUnits="userSpaceOnUse"><stop stop-color="#bba6ff"/><stop offset="1" stop-color="#cdbbef"/></linearGradient><linearGradient id="paint5_linear" x1="-nan" y1="-nan" x2="-nan" y2="-nan" gradientUnits="userSpaceOnUse"><stop stop-color="#bba6ff"/><stop offset="1" stop-color="#cdbbef"/></linearGradient><linearGradient id="paint6_linear" x1="41.0835" y1="42.5" x2="41.0835" y2="85" gradientUnits="userSpaceOnUse"><stop stop-color="#4614e8"/><stop offset="1" stop-color="#bca7ff"/></linearGradient></defs></svg>