<svg width="170" height="170" viewBox="0 0 170 170" fill="none" xmlns="http://www.w3.org/2000/svg"><path d="M110.265 44.0999H59.7465L56.293 56.2888H113.719L110.265 44.0999z" fill="url(#paint0_linear)"/><path d="M68.0996 65.5h33.8v28.6h-33.8z" fill="url(#paint1_linear)"/><path d="M112.273 102.079C103.915 106.695 96.8081 113.406 91.7222 121.486L88.9443 125.9H101.8C105.784 119.746 111.267 114.632 117.687 111.086 123.614 107.813 130.247 105.929 136.999 105.585V95.0864C128.356 95.4939 119.859 97.8905 112.273 102.079z" fill="url(#paint2_linear)"/><path d="M49.3674 116.421C44.3409 113.645 38.726 112.027 33.0039 111.689V125.9H60.6802C57.5627 122.054 53.7141 118.821 49.3674 116.421z" fill="url(#paint3_linear)"/><path d="M57.7297 102.079C50.144 97.8905 41.6471 95.4939 33.0039 95.0864V105.586C39.7547 105.93 46.387 107.814 52.3133 111.086 58.7336 114.632 64.2162 119.746 68.2001 125.9H81.0587L78.2809 121.486C73.1948 113.406 66.0883 106.695 57.7297 102.079z" fill="url(#paint4_linear)"/><path d="M109.319 125.9H136.998V111.688C131.275 112.026 125.659 113.645 120.632 116.421 116.285 118.821 112.437 122.054 109.319 125.9z" fill="url(#paint5_linear)"/><path d="M83.4381 118.24 85.0012 120.724 86.5643 118.24C92.1975 109.29 100.069 101.857 109.327 96.7442 117.812 92.0587 127.327 89.3979 136.998 88.9863V88.9298H130.34V82.475C132.223 81.8583 133.881 80.6675 135.102 79.0091 136.95 76.5004 137.479 73.3551 136.555 70.38L133.815 61.5633C132.909 58.6453 130.348 56.76 127.293 56.76 124.237 56.76 121.677 58.6453 120.771 61.5633L118.031 70.38C117.106 73.3553 117.636 76.5006 119.483 79.0093 120.705 80.6677 122.362 81.8585 124.246 82.4752V88.93H110.4V62.3827H59.6128V88.9298H45.7543V82.475C47.6378 81.8583 49.2956 80.6675 50.5168 79.0091 52.3643 76.5004 52.8937 73.3551 51.9692 70.3798L49.2295 61.5631C48.323 58.6453 45.7626 56.7598 42.7073 56.7598 39.6519 56.7598 37.0916 58.6451 36.185 61.5631L33.4453 70.3796C32.5209 73.3549 33.0503 76.5002 34.8978 79.0089 36.119 80.6673 37.7768 81.8581 39.6603 82.4748V88.9296H33.0037V88.9861C42.6754 89.3977 52.19 92.0585 60.6754 96.744 69.9335 101.857 77.8047 109.29 83.4381 118.24zM93.3303 68.3878H99.4244V74.4823H93.3303V68.3878zM93.3303 81.1861H99.4244V88.9298H93.3303V81.1861zM81.954 68.3878H88.048V74.4823H81.954V68.3878zM81.954 81.1861H88.048V88.9298H81.954V81.1861zM70.5778 68.3878H76.6719V74.4823H70.5778V68.3878zM70.5778 81.1861H76.6719V88.9298H70.5778V81.1861z" fill="url(#paint6_linear)"/><defs><linearGradient id="paint0_linear" x1="85.0058" y1="44.0999" x2="85.0058" y2="56.2888" gradientUnits="userSpaceOnUse"><stop stop-color="#cdbbf0"/><stop offset="1" stop-color="#bca7ff"/></linearGradient><linearGradient id="paint1_linear" x1="84.9996" y1="65.5" x2="84.9996" y2="94.1" gradientUnits="userSpaceOnUse"><stop stop-color="#cdbbf0"/><stop offset="1" stop-color="#bca7ff"/></linearGradient><linearGradient id="paint2_linear" x1="112.972" y1="95.0864" x2="112.972" y2="125.9" gradientUnits="userSpaceOnUse"><stop stop-color="#4614e8"/><stop offset="1" stop-color="#bca7ff"/></linearGradient><linearGradient id="paint3_linear" x1="46.8421" y1="111.689" x2="46.8421" y2="125.9" gradientUnits="userSpaceOnUse"><stop stop-color="#4614e8"/><stop offset="1" stop-color="#bca7ff"/></linearGradient><linearGradient id="paint4_linear" x1="57.0313" y1="95.0864" x2="57.0313" y2="125.9" gradientUnits="userSpaceOnUse"><stop stop-color="#4614e8"/><stop offset="1" stop-color="#bca7ff"/></linearGradient><linearGradient id="paint5_linear" x1="123.159" y1="111.688" x2="123.159" y2="125.9" gradientUnits="userSpaceOnUse"><stop stop-color="#4614e8"/><stop offset="1" stop-color="#bca7ff"/></linearGradient><linearGradient id="paint6_linear" x1="59.8475" y1="122.516" x2="100.167" y2="72.1482" gradientUnits="userSpaceOnUse"><stop stop-color="#e2d9ff"/><stop offset="1" stop-color="#f2eaff"/></linearGradient></defs></svg>