<svg width="170" height="170" viewBox="0 0 170 170" fill="none" xmlns="http://www.w3.org/2000/svg"><path d="M124.033 127.042 117.193 61.9018C117.049 60.5381 115.9 59.5027 114.529 59.5027h-7.5V70.7623C107.029 75.1932 103.424 78.7981 98.9933 78.7981 94.5623 78.7981 90.9575 75.1932 90.9575 70.7623V59.5027H79.2426V70.7623C79.2426 75.1932 75.6377 78.7981 71.2068 78.7981 66.7759 78.7981 63.171 75.1932 63.171 70.7623V59.5027H55.6714C54.3002 59.5027 53.1508 60.5381 53.0072 61.9018L46.1669 127.042C46.0879 127.796 46.3331 128.55 46.8405 129.114 47.3486 129.678 48.0723 130 48.8311 130H121.368C122.128 130 122.851 129.678 123.359 129.114 123.868 128.55 124.112 127.796 124.033 127.042z" fill="url(#paint0_linear)"/><path d="M68.5283 70.7624C68.5283 72.2421 69.7279 73.441 71.2069 73.441 72.686 73.441 73.8855 72.2421 73.8855 70.7624V56.5715C73.8855 50.3883 78.9166 45.3572 85.1005 45.3572 91.2838 45.3572 96.3148 50.3883 96.3148 56.5715V70.7631C96.3148 72.2421 97.5144 73.4417 98.9934 73.4417 100.472 73.4417 101.672 72.2421 101.672 70.7631V56.5715C101.672 47.4343 94.2377 40 85.1005 40 75.9626 40 68.5283 47.4343 68.5283 56.5715V70.7624z" fill="url(#paint1_linear)"/><defs><linearGradient id="paint0_linear" x1="66.2609" y1="131.976" x2="111.2" y2="93.8251" gradientUnits="userSpaceOnUse"><stop stop-color="#e2d9ff"/><stop offset="1" stop-color="#f2eaff"/></linearGradient><linearGradient id="paint1_linear" x1="85.1002" y1="40" x2="85.1002" y2="73.4417" gradientUnits="userSpaceOnUse"><stop stop-color="#cdbbf0"/><stop offset="1" stop-color="#bca7ff"/></linearGradient></defs></svg>