<svg width="170" height="170" viewBox="0 0 170 170" fill="none" xmlns="http://www.w3.org/2000/svg"><path d="M128.448 67.7289 102.14 41.4623C101.259 40.5315 99.9016 40 98.417 40 96.958 40 95.5872 40.5315 94.6597 41.4595 93.6594 42.4604 93.1075 43.7903 93.1075 45.2032 93.1075 46.6162 93.6569 47.9466 94.6597 48.9472L94.8152 49.1033C90.7466 54.5922 89.9205 61.9797 92.906 68.2965 93.0397 68.5633 93.2085 68.7817 93.3496 69.0374L71.0092 91.4867C68.4743 94.023 66.7508 97.2883 66.0522 100.776 65.6802 102.631 67.3552 104.307 69.213 103.952 72.7625 103.275 75.9926 101.567 78.5477 98.9717L100.88 76.5329C101.142 76.672 101.382 76.8532 101.651 76.9791 104.181 78.2159 106.875 78.8409 109.661 78.8405 113.714 78.8405 117.536 77.4837 120.73 75.0854L120.912 75.2683C121.933 76.2899 123.201 76.8083 124.68 76.8083 126.162 76.8085 127.429 76.2899 128.45 75.2658 129.451 74.2651 130 72.9272 130 71.4989 130 70.0704 129.448 68.7296 128.448 67.7289zM103.939 72.1879C102.569 71.5475 101.34 70.6895 100.288 69.6369 99.244 68.5919 98.381 67.376 97.6789 65.9708 95.6709 61.7274 96.0873 56.761 98.6081 52.9061L116.976 71.3274C113.213 73.8292 108.233 74.2831 103.939 72.1879z" fill="url(#paint0_linear)"/><path d="M98.5535 109.966 89.1982 95.8914 82.1556 102.934C78.8669 106.275 74.6466 108.525 69.9817 109.416 67.3681 109.916 64.6713 109.082 62.7733 107.184 60.8606 105.271 60.0341 102.56 60.558 99.9257 61.4858 95.3197 63.7159 91.1454 67.0139 87.8472L74.0609 80.799 60.0382 71.4493C58.9893 70.745 57.5861 70.8805 56.6783 71.7729L52.2883 76.1109C42.4825 85.9196 37.7428 99.4532 39.2869 113.217L39.8243 118.382C40.5623 124.63 45.4248 129.458 51.6253 130.126L56.7119 130.716C58.4232 130.906 60.1319 131 61.8275 131 73.8036 131 85.2495 126.299 93.8344 117.714L98.2167 113.334C99.1169 112.437 99.2576 111.025 98.5535 109.966z" fill="url(#paint1_linear)"/><defs><linearGradient id="paint0_linear" x1="79.8039" y1="40" x2="130" y2="40" gradientUnits="userSpaceOnUse"><stop stop-color="#e1d8ff"/><stop offset="1" stop-color="#f4ecff"/></linearGradient><linearGradient id="paint1_linear" x1="69" y1="71" x2="69" y2="131" gradientUnits="userSpaceOnUse"><stop stop-color="#cdbbf0"/><stop offset="1" stop-color="#bca7ff"/></linearGradient></defs></svg>