<svg width="170" height="170" viewBox="0 0 170 170" fill="none" xmlns="http://www.w3.org/2000/svg"><path d="M85.4991 40.0054C60.9637 40.0054 41 59.9591 41 84.5009 41 109.033 60.9637 128.997 85.4991 128.997 110.038 128.997 130 109.033 130 84.5009 130 59.9591 110.038 40.0054 85.4991 40.0054zM85.4991 119.083C66.4277 119.083 50.9137 103.57 50.9137 84.5011 50.9137 65.4241 66.4277 49.9111 85.4991 49.9111 104.573 49.9111 120.087 65.4244 120.087 84.5011 120.087 103.57 104.573 119.083 85.4991 119.083z" fill="url(#paint0_linear)"/><path d="M100.105 76.4299C97.2624 71.5517 91.9764 68.5257 86.3104 68.5257 77.5115 68.5257 70.3444 75.6912 70.3444 84.4902 70.3444 93.2966 77.5115 100.464 86.3104 100.464 91.9766 100.464 97.2624 97.4273 100.105 92.5588 100.332 92.1651 100.753 91.9226 101.207 91.9226H109.354C110.247 91.9226 110.865 92.813 110.553 93.6492 108.687 98.5932 105.413 102.797 101.078 105.797 96.7324 108.805 91.6281 110.401 86.3104 110.401 72.0253 110.401 60.4082 98.7741 60.4082 84.4902 60.4082 70.2054 72.0253 58.5893 86.3104 58.5893 91.6281 58.5893 96.7322 60.1798 101.078 63.1925 105.413 66.1936 108.687 70.3957 110.553 75.3397 110.865 76.1764 110.246 77.0673 109.353 77.0673H101.208C100.753 77.0673 100.332 76.8243 100.105 76.4299z" fill="url(#paint1_linear)"/><defs><linearGradient id="paint0_linear" x1="60.1961" y1="40.0054" x2="130" y2="40.0054" gradientUnits="userSpaceOnUse"><stop stop-color="#e1d8ff"/><stop offset="1" stop-color="#f4ecff"/></linearGradient><linearGradient id="paint1_linear" x1="85.8026" y1="110.401" x2="85.8026" y2="58.5893" gradientUnits="userSpaceOnUse"><stop stop-color="#bca7ff"/><stop offset="1" stop-color="#4614e8"/></linearGradient></defs></svg>