<svg width="170" height="170" viewBox="0 0 170 170" fill="none" xmlns="http://www.w3.org/2000/svg"><path d="M49 66C49 58.8203 54.8203 53 62 53h47C114.523 53 119 57.4772 119 63V76C119 81.5228 114.523 86 109 86H59C53.4772 86 49 81.5228 49 76V66z" fill="url(#paint0_linear)"/><path d="M47 86h74v20H47z" fill="url(#paint1_linear)"/><path d="M127.172 66.6277C126.767 66.6277 126.352 66.6859 125.937 66.8014L121.244 68.1038 116.37 56.1445C114.99 52.7562 110.908 50 107.273 50H61.6618C58.0258 50 53.9446 52.7562 52.5642 56.1445L47.697 68.0875 43.0626 66.8014C42.6482 66.6863 42.2323 66.6277 41.8278 66.6277 39.61 66.6277 38 68.3344 38 70.6863V73.474C38 76.2195 40.217 78.4527 42.9424 78.4527H43.473L42.6866 80.3829C41.4039 83.531 40.3605 88.8598 40.3605 92.2625V116.021C40.3605 118.767 42.5778 121 45.3029 121H51.758C54.4835 121 56.7004 118.767 56.7004 116.021V110.088H112.235V116.021C112.235 118.767 114.452 121 117.177 121H123.632C126.357 121 128.574 118.767 128.574 116.021V92.2625C128.574 88.8602 127.531 83.531 126.248 80.3829L125.461 78.4527H126.058C128.783 78.4527 131 76.2195 131 73.474V70.6863C131 68.3344 129.39 66.6277 127.172 66.6277zM51.2413 75.7483 58.6133 57.6589C59.4393 55.6323 61.8943 53.9742 64.0689 53.9742H104.866C107.041 53.9742 109.496 55.6323 110.321 57.6589L117.693 75.7483C118.519 77.7748 117.416 79.4329 115.241 79.4329H53.6939C51.5192 79.4329 50.4157 77.7748 51.2413 75.7483zM67.6986 98.6289C67.6986 99.7242 66.809 100.62 65.7217 100.62H51.7169C50.6296 100.62 49.74 99.7242 49.74 98.6289V91.8582C49.74 90.7629 50.6296 89.8667 51.7169 89.8667H65.7217C66.809 89.8667 67.6986 90.7629 67.6986 91.8582V98.6289zm51.3634.0C119.062 99.7242 118.173 100.62 117.085 100.62H103.081C101.994 100.62 101.104 99.7242 101.104 98.6289V91.8582C101.104 90.7629 101.994 89.8667 103.081 89.8667H117.085C118.173 89.8667 119.062 90.7629 119.062 91.8582V98.6289z" fill="url(#paint2_linear)"/><defs><linearGradient id="paint0_linear" x1="84" y1="53" x2="84" y2="86" gradientUnits="userSpaceOnUse"><stop stop-color="#cdbbf0"/><stop offset="1" stop-color="#bca7ff"/></linearGradient><linearGradient id="paint1_linear" x1="84" y1="86" x2="84" y2="106" gradientUnits="userSpaceOnUse"><stop stop-color="#4614e8"/><stop offset="1" stop-color="#bca7ff"/></linearGradient><linearGradient id="paint2_linear" x1="58.0588" y1="50" x2="131" y2="50" gradientUnits="userSpaceOnUse"><stop stop-color="#e1d8ff"/><stop offset="1" stop-color="#f4ecff"/></linearGradient></defs></svg>