<svg width="170" height="170" viewBox="0 0 170 170" fill="none" xmlns="http://www.w3.org/2000/svg"><path d="M126.471 118H43.5294V126.4H38V132h94V126.4H126.471V118z" fill="url(#paint0_linear)"/><path d="M85 38 38 52.3217V68h94V52.3217L85 38z" fill="url(#paint1_linear)"/><path d="M51 76C51 74.3431 52.3431 73 54 73h5C60.6569 73 62 74.3431 62 76v35C62 112.657 60.6569 114 59 114H54C52.3431 114 51 112.657 51 111V76z" fill="url(#paint2_linear)"/><path d="M79 76C79 74.3431 80.3431 73 82 73h6C89.6569 73 91 74.3431 91 76v35C91 112.657 89.6569 114 88 114H82C80.3431 114 79 112.657 79 111V76z" fill="url(#paint3_linear)"/><path d="M108 76C108 74.3431 109.343 73 111 73h5C117.657 73 119 74.3431 119 76v35C119 112.657 117.657 114 116 114h-5C109.343 114 108 112.657 108 111V76z" fill="url(#paint4_linear)"/><path d="M80.2501 58.0907h1.75V59.7273C82.0001 59.8069 82.0235 59.8721 82.0704 59.9231 82.1173 59.9744 82.1772 60 82.2502 60H83.5548C83.6225 60 83.6811 59.9744 83.7306 59.9231 83.7801 59.8721 83.8047 59.8069 83.8047 59.7273V58.0907H87.7501C87.8229 58.0907 87.8828 58.0654 87.9298 58.0141 87.9768 57.9629 88.0001 57.8977 88.0001 57.818V56.7271C88.0001 56.6479 87.9768 56.5823 87.9298 56.5313 87.8829 56.4801 87.8229 56.4544 87.7501 56.4544H83.8046V55.4487H86.4609C87.5025 55.4487 88.3526 55.1024 89.0117 54.409 89.6704 53.7162 90 52.8214 90 51.7243 90 50.6281 89.6704 49.7332 89.0117 49.0397 88.3528 48.3469 87.5025 48 86.4609 48H82.25C82.1771 48 82.1173 48.0256 82.0703 48.0766 82.0235 48.1279 82 48.1935 82 48.2727V53.6336H80.2501C80.1771 53.6336 80.1173 53.6605 80.0703 53.7145 80.0235 53.7685 80 53.8324 80 53.9062V55.176C80 55.2556 80.0234 55.3208 80.0703 55.3721 80.1173 55.4234 80.177 55.4487 80.2501 55.4487h1.75V56.4544h-1.75C80.1771 56.4544 80.1173 56.48 80.0703 56.5313 80.0235 56.5823 80 56.6478 80 56.7271V57.818C80 57.8977 80.0234 57.9629 80.0703 58.0141 80.1173 58.0654 80.1771 58.0907 80.2501 58.0907zM83.8046 49.8155h2.5C86.8566 49.8155 87.3019 49.9916 87.6405 50.3439 87.979 50.6962 88.1483 51.1565 88.1483 51.7245 88.1483 52.2927 87.979 52.7532 87.6405 53.1051 87.3019 53.4577 86.8566 53.6337 86.3046 53.6337h-2.5V49.8155z" fill="url(#paint5_linear)"/><defs><linearGradient id="paint0_linear" x1="58.2745" y1="118" x2="132" y2="118" gradientUnits="userSpaceOnUse"><stop stop-color="#e1d8ff"/><stop offset="1" stop-color="#f4ecff"/></linearGradient><linearGradient id="paint1_linear" x1="58.2745" y1="38" x2="132" y2="38" gradientUnits="userSpaceOnUse"><stop stop-color="#e1d8ff"/><stop offset="1" stop-color="#f4ecff"/></linearGradient><linearGradient id="paint2_linear" x1="56.5" y1="73" x2="56.5" y2="114" gradientUnits="userSpaceOnUse"><stop stop-color="#cdbbf0"/><stop offset="1" stop-color="#bca7ff"/></linearGradient><linearGradient id="paint3_linear" x1="85" y1="73" x2="85" y2="114" gradientUnits="userSpaceOnUse"><stop stop-color="#cdbbf0"/><stop offset="1" stop-color="#bca7ff"/></linearGradient><linearGradient id="paint4_linear" x1="113.5" y1="73" x2="113.5" y2="114" gradientUnits="userSpaceOnUse"><stop stop-color="#cdbbf0"/><stop offset="1" stop-color="#bca7ff"/></linearGradient><linearGradient id="paint5_linear" x1="85" y1="48" x2="85" y2="60" gradientUnits="userSpaceOnUse"><stop stop-color="#4614e8"/><stop offset="1" stop-color="#784dff"/></linearGradient></defs></svg>