<svg width="170" height="170" viewBox="0 0 170 170" fill="none" xmlns="http://www.w3.org/2000/svg"><path d="M69 107h34v9H69z" fill="url(#paint0_linear)"/><ellipse cx="84.5" cy="76" rx="26.5" ry="27" fill="url(#paint1_linear)"/><path d="M77 60C75.7397 63.6704 75.0293 68.3153 74.8268 73H68C68.8658 67.2517 72.3115 62.4343 77 60z" fill="url(#paint2_linear)"/><path d="M74.8268 79C75.0293 83.6847 75.7397 88.3296 77 92 72.3115 89.5657 68.8658 84.7483 68 79H74.8268z" fill="url(#paint3_linear)"/><path d="M81 79h8C88.8559 83.6373 87.4973 91.9872 85 94 82.4937 91.9624 81.1504 83.6629 81 79z" fill="url(#paint4_linear)"/><path d="M87.4602 63.5281C88.2886 66.1762 88.8199 69.4679 89 73H81C81.1441 68.6718 82.5027 60.8788 85 59 85.3494 59.1988 86.448 60.2997 87.4602 63.5281z" fill="url(#paint5_linear)"/><path d="M95.1732 79H102C101.134 84.7483 97.6885 89.5657 93 92 94.2603 88.3296 94.9707 83.6847 95.1732 79z" fill="url(#paint6_linear)"/><path d="M102 73H95.1732C94.9707 68.3153 94.2603 63.6704 93 60 97.6885 62.4343 101.134 67.2517 102 73z" fill="url(#paint7_linear)"/><path d="M111.25 41H50v88h61.25C116.062 129 120 125.039 120 120.2V49.8C120 44.959 116.062 41 111.25 41v0zm-17.5 73.263H76.25V108.537h17.5V114.263zM85.1594 99.5954C54.1026 98.5455 54.126 53.8427 85.1594 52.8046 115.821 54.2701 115.797 98.1414 85.1594 99.5954z" fill="url(#paint8_linear)"/><defs><linearGradient id="paint0_linear" x1="86" y1="107" x2="86" y2="116" gradientUnits="userSpaceOnUse"><stop stop-color="#4614e8"/><stop offset="1" stop-color="#784dff"/></linearGradient><linearGradient id="paint1_linear" x1="84.5" y1="49" x2="84.5" y2="103" gradientUnits="userSpaceOnUse"><stop stop-color="#cdbbf0"/><stop offset="1" stop-color="#bca7ff"/></linearGradient><linearGradient id="paint2_linear" x1="69.9412" y1="60" x2="77" y2="60" gradientUnits="userSpaceOnUse"><stop stop-color="#e1d8ff"/><stop offset="1" stop-color="#f4ecff"/></linearGradient><linearGradient id="paint3_linear" x1="69.9412" y1="79" x2="77" y2="79" gradientUnits="userSpaceOnUse"><stop stop-color="#e1d8ff"/><stop offset="1" stop-color="#f4ecff"/></linearGradient><linearGradient id="paint4_linear" x1="82.7255" y1="79" x2="89" y2="79" gradientUnits="userSpaceOnUse"><stop stop-color="#e1d8ff"/><stop offset="1" stop-color="#f4ecff"/></linearGradient><linearGradient id="paint5_linear" x1="82.7255" y1="59" x2="89" y2="59" gradientUnits="userSpaceOnUse"><stop stop-color="#e1d8ff"/><stop offset="1" stop-color="#f4ecff"/></linearGradient><linearGradient id="paint6_linear" x1="94.9412" y1="79" x2="102" y2="79" gradientUnits="userSpaceOnUse"><stop stop-color="#e1d8ff"/><stop offset="1" stop-color="#f4ecff"/></linearGradient><linearGradient id="paint7_linear" x1="94.9412" y1="60" x2="102" y2="60" gradientUnits="userSpaceOnUse"><stop stop-color="#e1d8ff"/><stop offset="1" stop-color="#f4ecff"/></linearGradient><linearGradient id="paint8_linear" x1="65.098" y1="41" x2="120" y2="41" gradientUnits="userSpaceOnUse"><stop stop-color="#e1d8ff"/><stop offset="1" stop-color="#f4ecff"/></linearGradient></defs></svg>