<svg width="170" height="170" viewBox="0 0 170 170" fill="none" xmlns="http://www.w3.org/2000/svg"><path d="M127.802 78.6204 120.468 71.9545 87.4677 41.9543C86.0706 40.6819 83.9292 40.6819 82.5322 41.9543L49.5315 71.9545 42.1981 78.6204C40.7021 79.9808 40.5921 82.3018 41.9525 83.8014 43.3165 85.301 45.6412 85.411 47.1336 84.0434L48.3326 82.9544V125.333C48.3326 127.357 49.9717 129 51.9993 129H70.3331V99.667C70.3331 91.5785 76.9112 85.0005 85 85.0005 93.0888 85.0005 99.6669 91.5785 99.6669 99.667V129H118.001C120.028 129 121.667 127.357 121.667 125.333V82.9544L122.866 84.0434C123.57 84.685 124.454 85.0004 125.334 85.0004 126.331 85.0004 127.325 84.5934 128.047 83.8014 129.408 82.3018 129.298 79.9808 127.802 78.6204z" fill="url(#paint0_linear)"/><path d="M85.0001 129C81.1395 129 78 125.681 78 121.6V99C78 95.134 81.134 92 85 92 88.866 92 92 95.134 92 99V121.6C92 125.681 88.8605 129 85.0001 129z" fill="url(#paint1_linear)"/><defs><linearGradient id="paint0_linear" x1="59.9804" y1="41" x2="129" y2="41" gradientUnits="userSpaceOnUse"><stop stop-color="#e1d8ff"/><stop offset="1" stop-color="#f4ecff"/></linearGradient><linearGradient id="paint1_linear" x1="85" y1="129" x2="85" y2="92" gradientUnits="userSpaceOnUse"><stop stop-color="#4614e8"/><stop offset="1" stop-color="#bca7ff"/></linearGradient></defs></svg>