<svg width="170" height="170" viewBox="0 0 170 170" fill="none" xmlns="http://www.w3.org/2000/svg"><path d="M97.2393 84.7358C98.0216 83.4092 97.0739 81.7333 95.5338 81.72L90.8217 81.6792C90.133 81.6732 89.4959 81.3134 89.1352 80.7267L86.7038 76.7715C85.923 75.5014 84.077 75.5014 83.2962 76.7715L80.8648 80.7267C80.5041 81.3134 79.867 81.6732 79.1783 81.6792L74.4661 81.72C72.9261 81.7333 71.9784 83.4092 72.7607 84.7358L74.971 88.4841C75.3406 89.1109 75.3406 89.8891 74.971 90.5159L72.7607 94.2642C71.9784 95.5908 72.9261 97.2667 74.4661 97.28L79.1783 97.3208C79.867 97.3268 80.5041 97.6866 80.8648 98.2733L83.2962 102.228C84.077 103.499 85.923 103.499 86.7038 102.228L89.1352 98.2733C89.4959 97.6866 90.133 97.3268 90.8217 97.3208L95.5339 97.28C97.0739 97.2667 98.0216 95.5908 97.2393 94.2642L95.029 90.5159C94.6594 89.8891 94.6594 89.1109 95.029 88.4841L97.2393 84.7358z" fill="url(#paint0_linear)"/><path d="M120.186 82.9535C117.583 75.0935 117.476 66.6111 119.88 58.687L120.851 55.4862C121.278 54.0791 120.899 52.5512 119.863 51.5075L116.576 48.1951C115.293 46.9023 113.309 46.6635 111.663 47.443 103.458 51.3292 95.2529 51.2177 87.0477 47.1085 85.7613 46.4642 84.2387 46.4642 82.9523 47.1085 74.7471 51.2177 66.5418 51.3292 58.3366 47.443 56.6906 46.6635 54.7068 46.9024 53.424 48.1951L50.1371 51.5076C49.1014 52.5514 48.7218 54.0793 49.1487 55.4863L50.1198 58.6871C52.5238 66.6112 52.4167 75.0936 49.8136 82.9536 44.1379 100.091 52.1744 118.786 68.4616 126.335L83.318 133.22C84.3848 133.715 85.6152 133.715 86.682 133.22L101.539 126.335C117.826 118.786 125.862 100.091 120.186 82.9535zM104.003 96.7417C105.491 99.394 103.592 102.671 100.551 102.699L94.7841 102.751C93.3761 102.764 92.0785 103.516 91.3677 104.731L88.4527 109.715C86.9082 112.356 83.0917 112.356 81.5472 109.715L78.6322 104.732C77.9213 103.516 76.6238 102.764 75.2158 102.751L69.449 102.699C66.4079 102.671 64.5089 99.3941 65.9969 96.7418L68.8741 91.6134C69.5561 90.3978 69.5561 88.9147 68.8741 87.6991L65.9969 82.5707C64.5089 79.9184 66.4079 76.6414 69.449 76.6137L75.2158 76.5613C76.6238 76.5485 77.9213 75.7963 78.6322 74.5809L81.5473 69.5969C83.0918 66.9562 86.9083 66.9562 88.4528 69.5969L91.3678 74.5806C92.0787 75.796 93.3762 76.5481 94.7842 76.5609L100.551 76.6134C103.592 76.6411 105.491 79.918 104.003 82.5704L101.126 87.6988C100.444 88.9144 100.444 90.3974 101.126 91.613L104.003 96.7417z" fill="url(#paint1_linear)"/><defs><linearGradient id="paint0_linear" x1="85" y1="74" x2="85" y2="105" gradientUnits="userSpaceOnUse"><stop stop-color="#4614e8"/><stop offset="1" stop-color="#bca7ff"/></linearGradient><linearGradient id="paint1_linear" x1="63.9608" y1="46" x2="122" y2="46" gradientUnits="userSpaceOnUse"><stop stop-color="#e1d8ff"/><stop offset="1" stop-color="#f4ecff"/></linearGradient></defs></svg>