<svg width="170" height="170" viewBox="0 0 170 170" fill="none" xmlns="http://www.w3.org/2000/svg"><path d="M48.1668 24.0833H120.417C124.383 24.0833 127.5 27.1999 127.5 31.1666V140.25C127.5 144.217 124.383 147.333 120.417 147.333H48.1668C44.2002 147.333 41.0835 144.217 41.0835 140.25V31.1666C41.0835 27.1999 44.2002 24.0833 48.1668 24.0833z" fill="url(#paint0_linear)"/><path d="M77.6335 77.7751l-10.625-10.625C71.4002 63.1834 77.2085 60.9167 83.5835 60.9167 96.9002 60.9167 107.95 71.1168 109.083 84.2918H94.0668C93.0752 79.4751 88.8252 75.9334 83.7252 75.9334 81.4585 75.7918 79.3335 76.5001 77.6335 77.7751zM72.9585 86.4168C72.9585 84.4334 73.5252 82.5918 74.5168 80.8918L63.8918 70.2667C60.2085 74.6584 58.0835 80.3251 58.0835 86.4168 58.0835 99.7334 68.2835 110.783 81.4585 111.917V96.9001C76.6418 95.9084 72.9585 91.5168 72.9585 86.4168zM85.8502 96.9001V111.917C98.1752 110.783 107.95 101.008 109.083 88.6834H94.0668C93.2168 92.7918 89.9585 96.0501 85.8502 96.9001z" fill="url(#paint1_linear)"/><defs><linearGradient id="paint0_linear" x1="59.7224" y1="85.7082" x2="127.5" y2="85.7082" gradientUnits="userSpaceOnUse"><stop stop-color="#e1d8ff"/><stop offset="1" stop-color="#f4ecff"/></linearGradient><linearGradient id="paint1_linear" x1="83.5835" y1="60.9167" x2="83.5835" y2="111.917" gradientUnits="userSpaceOnUse"><stop stop-color="#4614e8"/><stop offset="1" stop-color="#bca7ff"/></linearGradient></defs></svg>