<svg width="170" height="170" viewBox="0 0 170 170" fill="none" xmlns="http://www.w3.org/2000/svg"><rect width="36" height="54" rx="8" transform="matrix(1 0 0 -1 64 103)" fill="url(#paint0_linear)"/><path d="M125.479 71.0769C124.805 69.6177 123.953 68.1275 122.905 66.5754L129.13 48H119.305C114.473 48 109.918 49.6733 106.264 52.7494 101.172 50.4008 95.4407 48.9194 89.5301 48.3585L84.5 59.5385 93.2012 65.3077 81.5996 82.6154V71.0769L69.998 65.3077 75.0349 48.8356 73.482 49.1577C60.7959 51.7885 50.5619 58.7725 45.1649 67.7373 43.3854 68.7779 40.8037 67.4225 40.8008 65.3077 40.8008 63.7162 42.1009 62.4231 43.7012 62.4231V56.6538C38.9032 56.6538 35 60.5358 35 65.3077 35 69.6287 38.2096 73.1883 42.3763 73.8285 41.4364 76.6602 40.8008 79.5812 40.8008 82.6154 40.8008 91.4269 45.1011 99.7371 52.5957 106.154V123H69.1881L71.6466 115.67C78.0959 117.268 84.35 117.783 91.8842 116.651L94.0112 123H110.604V110.214C117.478 106.092 122.675 100.484 125.496 94.1538H134V71.0769h-8.521z" fill="url(#paint1_linear)"/><defs><linearGradient id="paint0_linear" x1="18" y1="0" x2="18" y2="54" gradientUnits="userSpaceOnUse"><stop stop-color="#4614e8"/><stop offset="1" stop-color="#bca7ff"/></linearGradient><linearGradient id="paint1_linear" x1="56.3529" y1="48" x2="134" y2="48" gradientUnits="userSpaceOnUse"><stop stop-color="#e1d8ff"/><stop offset="1" stop-color="#f4ecff"/></linearGradient></defs></svg>