<svg width="170" height="170" viewBox="0 0 170 170" fill="none" xmlns="http://www.w3.org/2000/svg"><path d="M50 65C46.7 65 44 67.61 44 70.8V117.2C44 120.39 46.7 123 50 123h6V65H50z" fill="url(#paint0_linear)"/><path d="M108 65H62v58h46V65z" fill="url(#paint1_linear)"/><path d="M120 65h-6v58h6C123.3 123 126 120.39 126 117.2V70.8C126 67.61 123.3 65 120 65z" fill="url(#paint2_linear)"/><path d="M97 48H73C71.2 48 70 49.375 70 50.75V56C70 57.6569 71.3431 59 73 59h.25C74.7688 59 76 57.7688 76 56.25 76 54.7312 77.2312 53.5 78.75 53.5h12.5C92.7688 53.5 94 54.7312 94 56.25 94 57.7688 95.2312 59 96.75 59H97C98.6569 59 1e2 57.6569 1e2 56V50.75C1e2 49.1 98.5 48 97 48z" fill="url(#paint3_linear)"/><defs><linearGradient id="paint0_linear" x1="50" y1="65" x2="50" y2="123" gradientUnits="userSpaceOnUse"><stop stop-color="#cdbbf0"/><stop offset="1" stop-color="#bca7ff"/></linearGradient><linearGradient id="paint1_linear" x1="71.9216" y1="65" x2="108" y2="65" gradientUnits="userSpaceOnUse"><stop stop-color="#e1d8ff"/><stop offset="1" stop-color="#f4ecff"/></linearGradient><linearGradient id="paint2_linear" x1="120" y1="65" x2="120" y2="123" gradientUnits="userSpaceOnUse"><stop stop-color="#cdbbf0"/><stop offset="1" stop-color="#bca7ff"/></linearGradient><linearGradient id="paint3_linear" x1="85" y1="48" x2="85" y2="59" gradientUnits="userSpaceOnUse"><stop stop-color="#4614e8"/><stop offset="1" stop-color="#bca7ff"/></linearGradient></defs></svg>