<svg width="170" height="170" viewBox="0 0 170 170" fill="none" xmlns="http://www.w3.org/2000/svg"><path d="M49 63C49 55.8203 54.8203 50 62 50h47C114.523 50 119 54.4772 119 60v52C119 117.523 114.523 122 109 122H59C53.4772 122 49 117.523 49 112V63z" fill="url(#paint0_linear)"/><path d="M97 79h22v42H97z" fill="url(#paint1_linear)"/><path d="M117.5 41h-66C48.4695 41 46 43.4695 46 46.5v77C46 126.536 48.4695 129 51.5 129h66C120.536 129 123 126.536 123 123.5v-77C123 43.4695 120.536 41 117.5 41zM68 118H57V107H68v11zm0-22H57V85H68V96zm22 22H79V107H90v11zm0-22H79V85H90V96zm22 22H101V85h11v33zm0-46.75C112 72.768 110.768 74 109.25 74H59.75C58.232 74 57 72.768 57 71.25V54.75C57 53.232 58.232 52 59.75 52h49.5C110.768 52 112 53.232 112 54.75v16.5z" fill="url(#paint2_linear)"/><defs><linearGradient id="paint0_linear" x1="84" y1="50" x2="84" y2="122" gradientUnits="userSpaceOnUse"><stop stop-color="#cdbbf0"/><stop offset="1" stop-color="#bca7ff"/></linearGradient><linearGradient id="paint1_linear" x1="108" y1="79" x2="108" y2="121" gradientUnits="userSpaceOnUse"><stop stop-color="#4614e8"/><stop offset="1" stop-color="#bca7ff"/></linearGradient><linearGradient id="paint2_linear" x1="62.6078" y1="41" x2="123" y2="41" gradientUnits="userSpaceOnUse"><stop stop-color="#e1d8ff"/><stop offset="1" stop-color="#f4ecff"/></linearGradient></defs></svg>