<svg width="170" height="170" viewBox="0 0 170 170" fill="none" xmlns="http://www.w3.org/2000/svg"><path d="M36.8333 24.0833H94.9167C98.8833 24.0833 102 27.1999 102 31.1666V140.25C102 144.217 98.8833 147.333 94.9167 147.333H36.8333C32.8667 147.333 29.75 144.217 29.75 140.25V31.1666C29.75 27.1999 32.8667 24.0833 36.8333 24.0833z" fill="url(#paint0_linear)"/><path d="M41.0832 70.8333H46.7498C47.5998 70.8333 48.1665 71.3999 48.1665 72.2499V77.9166C48.1665 78.7666 47.5998 79.3333 46.7498 79.3333H41.0832C40.2332 79.3333 39.6665 78.7666 39.6665 77.9166V72.2499C39.6665 71.3999 40.2332 70.8333 41.0832 70.8333z" fill="url(#paint1_linear)"/><path d="M41.0832 56.6667H46.7498C47.5998 56.6667 48.1665 57.2334 48.1665 58.0834V63.7501C48.1665 64.6001 47.5998 65.1667 46.7498 65.1667H41.0832C40.2332 65.1667 39.6665 64.6001 39.6665 63.7501V58.0834C39.6665 57.2334 40.2332 56.6667 41.0832 56.6667z" fill="url(#paint2_linear)"/><path d="M41.0832 42.5H46.7498C47.5998 42.5 48.1665 43.0667 48.1665 43.9167V49.5833C48.1665 50.4333 47.5998 51 46.7498 51H41.0832C40.2332 51 39.6665 50.4333 39.6665 49.5833V43.9167C39.6665 43.0667 40.2332 42.5 41.0832 42.5z" fill="url(#paint3_linear)"/><path d="M41.0832 85H46.7498C47.5998 85 48.1665 85.5667 48.1665 86.4167V92.0833C48.1665 92.9333 47.5998 93.5 46.7498 93.5H41.0832C40.2332 93.5 39.6665 92.9333 39.6665 92.0833V86.4167C39.6665 85.5667 40.2332 85 41.0832 85z" fill="url(#paint4_linear)"/><path d="M41.0832 99.1667H46.7498C47.5998 99.1667 48.1665 99.7334 48.1665 100.583V106.25C48.1665 107.1 47.5998 107.667 46.7498 107.667H41.0832C40.2332 107.667 39.6665 107.1 39.6665 106.25V100.583C39.6665 99.7334 40.2332 99.1667 41.0832 99.1667z" fill="url(#paint5_linear)"/><path d="M41.0832 113.333H46.7498C47.5998 113.333 48.1665 113.9 48.1665 114.75V120.417C48.1665 121.267 47.5998 121.833 46.7498 121.833H41.0832C40.2332 121.833 39.6665 121.267 39.6665 120.417V114.75C39.6665 113.9 40.2332 113.333 41.0832 113.333z" fill="url(#paint6_linear)"/><path d="M41.0832 127.5H46.7498C47.5998 127.5 48.1665 128.067 48.1665 128.917V134.583C48.1665 135.433 47.5998 136 46.7498 136H41.0832C40.2332 136 39.6665 135.433 39.6665 134.583V128.917C39.6665 128.067 40.2332 127.5 41.0832 127.5z" fill="url(#paint7_linear)"/><path d="M56.6667 70.8333H62.3333C63.1833 70.8333 63.75 71.3999 63.75 72.2499V77.9166C63.75 78.7666 63.1833 79.3333 62.3333 79.3333H56.6667C55.8167 79.3333 55.25 78.7666 55.25 77.9166V72.2499C55.25 71.3999 55.8167 70.8333 56.6667 70.8333z" fill="url(#paint8_linear)"/><path d="M56.6667 56.6667H62.3333C63.1833 56.6667 63.75 57.2334 63.75 58.0834V63.7501C63.75 64.6001 63.1833 65.1667 62.3333 65.1667H56.6667C55.8167 65.1667 55.25 64.6001 55.25 63.7501V58.0834C55.25 57.2334 55.8167 56.6667 56.6667 56.6667z" fill="url(#paint9_linear)"/><path d="M56.6667 42.5H62.3333C63.1833 42.5 63.75 43.0667 63.75 43.9167V49.5833C63.75 50.4333 63.1833 51 62.3333 51H56.6667C55.8167 51 55.25 50.4333 55.25 49.5833V43.9167C55.25 43.0667 55.8167 42.5 56.6667 42.5z" fill="url(#paint10_linear)"/><path d="M56.6667 85H62.3333C63.1833 85 63.75 85.5667 63.75 86.4167V92.0833C63.75 92.9333 63.1833 93.5 62.3333 93.5H56.6667C55.8167 93.5 55.25 92.9333 55.25 92.0833V86.4167C55.25 85.5667 55.8167 85 56.6667 85z" fill="url(#paint11_linear)"/><path d="M56.6667 99.1667H62.3333C63.1833 99.1667 63.75 99.7334 63.75 100.583V106.25C63.75 107.1 63.1833 107.667 62.3333 107.667H56.6667C55.8167 107.667 55.25 107.1 55.25 106.25V100.583C55.25 99.7334 55.8167 99.1667 56.6667 99.1667z" fill="url(#paint12_linear)"/><path d="M56.6667 113.333H62.3333C63.1833 113.333 63.75 113.9 63.75 114.75V120.417C63.75 121.267 63.1833 121.833 62.3333 121.833H56.6667C55.8167 121.833 55.25 121.267 55.25 120.417V114.75C55.25 113.9 55.8167 113.333 56.6667 113.333z" fill="url(#paint13_linear)"/><path d="M56.6667 127.5H62.3333C63.1833 127.5 63.75 128.067 63.75 128.917V134.583C63.75 135.433 63.1833 136 62.3333 136H56.6667C55.8167 136 55.25 135.433 55.25 134.583V128.917C55.25 128.067 55.8167 127.5 56.6667 127.5z" fill="url(#paint14_linear)"/><path d="M72.2502 70.8333H77.9168C78.7668 70.8333 79.3335 71.3999 79.3335 72.2499V77.9166C79.3335 78.7666 78.7668 79.3333 77.9168 79.3333H72.2502C71.4002 79.3333 70.8335 78.7666 70.8335 77.9166V72.2499C70.8335 71.3999 71.4002 70.8333 72.2502 70.8333z" fill="url(#paint15_linear)"/><path d="M72.2502 56.6667H77.9168C78.7668 56.6667 79.3335 57.2334 79.3335 58.0834V63.7501C79.3335 64.6001 78.7668 65.1667 77.9168 65.1667H72.2502C71.4002 65.1667 70.8335 64.6001 70.8335 63.7501V58.0834C70.8335 57.2334 71.4002 56.6667 72.2502 56.6667z" fill="url(#paint16_linear)"/><path d="M72.2502 42.5H77.9168C78.7668 42.5 79.3335 43.0667 79.3335 43.9167V49.5833C79.3335 50.4333 78.7668 51 77.9168 51H72.2502C71.4002 51 70.8335 50.4333 70.8335 49.5833V43.9167C70.8335 43.0667 71.4002 42.5 72.2502 42.5z" fill="url(#paint17_linear)"/><path d="M72.2502 85H77.9168C78.7668 85 79.3335 85.5667 79.3335 86.4167V92.0833C79.3335 92.9333 78.7668 93.5 77.9168 93.5H72.2502C71.4002 93.5 70.8335 92.9333 70.8335 92.0833V86.4167C70.8335 85.5667 71.4002 85 72.2502 85z" fill="url(#paint18_linear)"/><path d="M72.2502 99.1667H77.9168C78.7668 99.1667 79.3335 99.7334 79.3335 100.583V106.25C79.3335 107.1 78.7668 107.667 77.9168 107.667H72.2502C71.4002 107.667 70.8335 107.1 70.8335 106.25V100.583C70.8335 99.7334 71.4002 99.1667 72.2502 99.1667z" fill="url(#paint19_linear)"/><path d="M72.2502 113.333H77.9168C78.7668 113.333 79.3335 113.9 79.3335 114.75V120.417C79.3335 121.267 78.7668 121.833 77.9168 121.833H72.2502C71.4002 121.833 70.8335 121.267 70.8335 120.417V114.75C70.8335 113.9 71.4002 113.333 72.2502 113.333z" fill="url(#paint20_linear)"/><path d="M72.2502 127.5H77.9168C78.7668 127.5 79.3335 128.067 79.3335 128.917V134.583C79.3335 135.433 78.7668 136 77.9168 136H72.2502C71.4002 136 70.8335 135.433 70.8335 134.583V128.917C70.8335 128.067 71.4002 127.5 72.2502 127.5z" fill="url(#paint21_linear)"/><path d="M87.8332 70.8333H93.4998C94.3498 70.8333 94.9165 71.3999 94.9165 72.2499V77.9166C94.9165 78.7666 94.3498 79.3333 93.4998 79.3333H87.8332C86.9832 79.3333 86.4165 78.7666 86.4165 77.9166V72.2499C86.4165 71.3999 86.9832 70.8333 87.8332 70.8333z" fill="url(#paint22_linear)"/><path d="M87.8332 56.6667H93.4998C94.3498 56.6667 94.9165 57.2334 94.9165 58.0834V63.7501C94.9165 64.6001 94.3498 65.1667 93.4998 65.1667H87.8332C86.9832 65.1667 86.4165 64.6001 86.4165 63.7501V58.0834C86.4165 57.2334 86.9832 56.6667 87.8332 56.6667z" fill="url(#paint23_linear)"/><path d="M87.8332 42.5H93.4998C94.3498 42.5 94.9165 43.0667 94.9165 43.9167V49.5833C94.9165 50.4333 94.3498 51 93.4998 51H87.8332C86.9832 51 86.4165 50.4333 86.4165 49.5833V43.9167C86.4165 43.0667 86.9832 42.5 87.8332 42.5z" fill="url(#paint24_linear)"/><path d="M87.8332 85H93.4998C94.3498 85 94.9165 85.5667 94.9165 86.4167V92.0833C94.9165 92.9333 94.3498 93.5 93.4998 93.5H87.8332C86.9832 93.5 86.4165 92.9333 86.4165 92.0833V86.4167C86.4165 85.5667 86.9832 85 87.8332 85z" fill="url(#paint25_linear)"/><path d="M92.0833 87.8333H143.083C147.05 87.8333 150.167 90.9499 150.167 94.9166V140.25C150.167 144.217 147.05 147.333 143.083 147.333H92.0833C88.1167 147.333 85 144.217 85 140.25V94.9166C85 90.9499 88.1167 87.8333 92.0833 87.8333z" fill="url(#paint26_linear)"/><path d="M99.1667 99.1667H104.833C105.683 99.1667 106.25 99.7334 106.25 100.583V106.25C106.25 107.1 105.683 107.667 104.833 107.667H99.1667C98.3167 107.667 97.75 107.1 97.75 106.25V100.583C97.75 99.7334 98.3167 99.1667 99.1667 99.1667z" fill="url(#paint27_linear)"/><path d="M99.1667 113.333H104.833C105.683 113.333 106.25 113.9 106.25 114.75V120.417C106.25 121.267 105.683 121.833 104.833 121.833H99.1667C98.3167 121.833 97.75 121.267 97.75 120.417V114.75C97.75 113.9 98.3167 113.333 99.1667 113.333z" fill="url(#paint28_linear)"/><path d="M99.1667 127.5H104.833C105.683 127.5 106.25 128.067 106.25 128.917V134.583C106.25 135.433 105.683 136 104.833 136H99.1667C98.3167 136 97.75 135.433 97.75 134.583V128.917C97.75 128.067 98.3167 127.5 99.1667 127.5z" fill="url(#paint29_linear)"/><path d="M114.75 99.1667H120.417C121.267 99.1667 121.833 99.7334 121.833 100.583V106.25C121.833 107.1 121.267 107.667 120.417 107.667H114.75C113.9 107.667 113.333 107.1 113.333 106.25V100.583C113.333 99.7334 113.9 99.1667 114.75 99.1667z" fill="url(#paint30_linear)"/><path d="M114.75 113.333H120.417C121.267 113.333 121.833 113.9 121.833 114.75V120.417C121.833 121.267 121.267 121.833 120.417 121.833H114.75C113.9 121.833 113.333 121.267 113.333 120.417V114.75C113.333 113.9 113.9 113.333 114.75 113.333z" fill="url(#paint31_linear)"/><path d="M114.75 127.5H120.417C121.267 127.5 121.833 128.067 121.833 128.917V134.583C121.833 135.433 121.267 136 120.417 136H114.75C113.9 136 113.333 135.433 113.333 134.583V128.917C113.333 128.067 113.9 127.5 114.75 127.5z" fill="url(#paint32_linear)"/><path d="M130.333 99.1667H136C136.85 99.1667 137.417 99.7334 137.417 100.583V106.25C137.417 107.1 136.85 107.667 136 107.667H130.333C129.483 107.667 128.917 107.1 128.917 106.25V100.583C128.917 99.7334 129.483 99.1667 130.333 99.1667z" fill="url(#paint33_linear)"/><path d="M130.333 113.333H136C136.85 113.333 137.417 113.9 137.417 114.75V120.417C137.417 121.267 136.85 121.833 136 121.833H130.333C129.483 121.833 128.917 121.267 128.917 120.417V114.75C128.917 113.9 129.483 113.333 130.333 113.333z" fill="url(#paint34_linear)"/><path d="M130.333 127.5H136C136.85 127.5 137.417 128.067 137.417 128.917V134.583C137.417 135.433 136.85 136 136 136H130.333C129.483 136 128.917 135.433 128.917 134.583V128.917C128.917 128.067 129.483 127.5 130.333 127.5z" fill="url(#paint35_linear)"/><defs><linearGradient id="paint0_linear" x1="45.3333" y1="85.7083" x2="102" y2="85.7083" gradientUnits="userSpaceOnUse"><stop stop-color="#e1d8ff"/><stop offset="1" stop-color="#f4ecff"/></linearGradient><linearGradient id="paint1_linear" x1="40.4056" y1="75.0833" x2="47.1502" y2="75.0833" gradientUnits="userSpaceOnUse"><stop stop-color="#bba6ff"/><stop offset="1" stop-color="#cdbbef"/></linearGradient><linearGradient id="paint2_linear" x1="40.4056" y1="60.9167" x2="47.1502" y2="60.9167" gradientUnits="userSpaceOnUse"><stop stop-color="#bba6ff"/><stop offset="1" stop-color="#cdbbef"/></linearGradient><linearGradient id="paint3_linear" x1="40.4056" y1="46.75" x2="47.1502" y2="46.75" gradientUnits="userSpaceOnUse"><stop stop-color="#bba6ff"/><stop offset="1" stop-color="#cdbbef"/></linearGradient><linearGradient id="paint4_linear" x1="40.4056" y1="89.25" x2="47.1502" y2="89.25" gradientUnits="userSpaceOnUse"><stop stop-color="#bba6ff"/><stop offset="1" stop-color="#cdbbef"/></linearGradient><linearGradient id="paint5_linear" x1="40.4056" y1="103.417" x2="47.1502" y2="103.417" gradientUnits="userSpaceOnUse"><stop stop-color="#bba6ff"/><stop offset="1" stop-color="#cdbbef"/></linearGradient><linearGradient id="paint6_linear" x1="40.4056" y1="117.583" x2="47.1502" y2="117.583" gradientUnits="userSpaceOnUse"><stop stop-color="#bba6ff"/><stop offset="1" stop-color="#cdbbef"/></linearGradient><linearGradient id="paint7_linear" x1="40.4056" y1="131.75" x2="47.1502" y2="131.75" gradientUnits="userSpaceOnUse"><stop stop-color="#bba6ff"/><stop offset="1" stop-color="#cdbbef"/></linearGradient><linearGradient id="paint8_linear" x1="55.9891" y1="75.0833" x2="62.7337" y2="75.0833" gradientUnits="userSpaceOnUse"><stop stop-color="#bba6ff"/><stop offset="1" stop-color="#cdbbef"/></linearGradient><linearGradient id="paint9_linear" x1="55.9891" y1="60.9167" x2="62.7337" y2="60.9167" gradientUnits="userSpaceOnUse"><stop stop-color="#bba6ff"/><stop offset="1" stop-color="#cdbbef"/></linearGradient><linearGradient id="paint10_linear" x1="55.9891" y1="46.75" x2="62.7337" y2="46.75" gradientUnits="userSpaceOnUse"><stop stop-color="#bba6ff"/><stop offset="1" stop-color="#cdbbef"/></linearGradient><linearGradient id="paint11_linear" x1="55.9891" y1="89.25" x2="62.7337" y2="89.25" gradientUnits="userSpaceOnUse"><stop stop-color="#bba6ff"/><stop offset="1" stop-color="#cdbbef"/></linearGradient><linearGradient id="paint12_linear" x1="59.5" y1="99.1667" x2="59.5" y2="107.667" gradientUnits="userSpaceOnUse"><stop stop-color="#4614e8"/><stop offset="1" stop-color="#bca7ff"/></linearGradient><linearGradient id="paint13_linear" x1="55.9891" y1="117.583" x2="62.7337" y2="117.583" gradientUnits="userSpaceOnUse"><stop stop-color="#bba6ff"/><stop offset="1" stop-color="#cdbbef"/></linearGradient><linearGradient id="paint14_linear" x1="55.9891" y1="131.75" x2="62.7337" y2="131.75" gradientUnits="userSpaceOnUse"><stop stop-color="#bba6ff"/><stop offset="1" stop-color="#cdbbef"/></linearGradient><linearGradient id="paint15_linear" x1="75.0835" y1="70.8333" x2="75.0835" y2="79.3333" gradientUnits="userSpaceOnUse"><stop stop-color="#4614e8"/><stop offset="1" stop-color="#bca7ff"/></linearGradient><linearGradient id="paint16_linear" x1="75.0835" y1="56.6667" x2="75.0835" y2="65.1667" gradientUnits="userSpaceOnUse"><stop stop-color="#4614e8"/><stop offset="1" stop-color="#bca7ff"/></linearGradient><linearGradient id="paint17_linear" x1="75.0835" y1="42.5" x2="75.0835" y2="51" gradientUnits="userSpaceOnUse"><stop stop-color="#4614e8"/><stop offset="1" stop-color="#bca7ff"/></linearGradient><linearGradient id="paint18_linear" x1="71.5726" y1="89.25" x2="78.3172" y2="89.25" gradientUnits="userSpaceOnUse"><stop stop-color="#bba6ff"/><stop offset="1" stop-color="#cdbbef"/></linearGradient><linearGradient id="paint19_linear" x1="71.5726" y1="103.417" x2="78.3172" y2="103.417" gradientUnits="userSpaceOnUse"><stop stop-color="#bba6ff"/><stop offset="1" stop-color="#cdbbef"/></linearGradient><linearGradient id="paint20_linear" x1="71.5726" y1="117.583" x2="78.3172" y2="117.583" gradientUnits="userSpaceOnUse"><stop stop-color="#bba6ff"/><stop offset="1" stop-color="#cdbbef"/></linearGradient><linearGradient id="paint21_linear" x1="71.5726" y1="131.75" x2="78.3172" y2="131.75" gradientUnits="userSpaceOnUse"><stop stop-color="#bba6ff"/><stop offset="1" stop-color="#cdbbef"/></linearGradient><linearGradient id="paint22_linear" x1="87.1556" y1="75.0833" x2="93.9002" y2="75.0833" gradientUnits="userSpaceOnUse"><stop stop-color="#bba6ff"/><stop offset="1" stop-color="#cdbbef"/></linearGradient><linearGradient id="paint23_linear" x1="87.1556" y1="60.9167" x2="93.9002" y2="60.9167" gradientUnits="userSpaceOnUse"><stop stop-color="#bba6ff"/><stop offset="1" stop-color="#cdbbef"/></linearGradient><linearGradient id="paint24_linear" x1="87.1556" y1="46.75" x2="93.9002" y2="46.75" gradientUnits="userSpaceOnUse"><stop stop-color="#bba6ff"/><stop offset="1" stop-color="#cdbbef"/></linearGradient><linearGradient id="paint25_linear" x1="87.1556" y1="89.25" x2="93.9002" y2="89.25" gradientUnits="userSpaceOnUse"><stop stop-color="#bba6ff"/><stop offset="1" stop-color="#cdbbef"/></linearGradient><linearGradient id="paint26_linear" x1="99.0556" y1="117.583" x2="150.167" y2="117.583" gradientUnits="userSpaceOnUse"><stop stop-color="#e1d8ff"/><stop offset="1" stop-color="#f4ecff"/></linearGradient><linearGradient id="paint27_linear" x1="98.4891" y1="103.417" x2="105.234" y2="103.417" gradientUnits="userSpaceOnUse"><stop stop-color="#bba6ff"/><stop offset="1" stop-color="#cdbbef"/></linearGradient><linearGradient id="paint28_linear" x1="102" y1="113.333" x2="102" y2="121.833" gradientUnits="userSpaceOnUse"><stop stop-color="#4614e8"/><stop offset="1" stop-color="#bca7ff"/></linearGradient><linearGradient id="paint29_linear" x1="98.4891" y1="131.75" x2="105.234" y2="131.75" gradientUnits="userSpaceOnUse"><stop stop-color="#bba6ff"/><stop offset="1" stop-color="#cdbbef"/></linearGradient><linearGradient id="paint30_linear" x1="114.073" y1="103.417" x2="120.817" y2="103.417" gradientUnits="userSpaceOnUse"><stop stop-color="#bba6ff"/><stop offset="1" stop-color="#cdbbef"/></linearGradient><linearGradient id="paint31_linear" x1="117.583" y1="113.333" x2="117.583" y2="121.833" gradientUnits="userSpaceOnUse"><stop stop-color="#4614e8"/><stop offset="1" stop-color="#bca7ff"/></linearGradient><linearGradient id="paint32_linear" x1="114.073" y1="131.75" x2="120.817" y2="131.75" gradientUnits="userSpaceOnUse"><stop stop-color="#bba6ff"/><stop offset="1" stop-color="#cdbbef"/></linearGradient><linearGradient id="paint33_linear" x1="129.656" y1="103.417" x2="136.4" y2="103.417" gradientUnits="userSpaceOnUse"><stop stop-color="#bba6ff"/><stop offset="1" stop-color="#cdbbef"/></linearGradient><linearGradient id="paint34_linear" x1="129.656" y1="117.583" x2="136.4" y2="117.583" gradientUnits="userSpaceOnUse"><stop stop-color="#bba6ff"/><stop offset="1" stop-color="#cdbbef"/></linearGradient><linearGradient id="paint35_linear" x1="133.167" y1="127.5" x2="133.167" y2="136" gradientUnits="userSpaceOnUse"><stop stop-color="#4614e8"/><stop offset="1" stop-color="#bca7ff"/></linearGradient></defs></svg>