<svg width="170" height="170" viewBox="0 0 170 170" fill="none" xmlns="http://www.w3.org/2000/svg"><path d="M102.992 127.075C102.425 126.792 102.142 126.367 102.142 125.8 102.142 118.433 96.05 112.342 88.6833 112.342H55.1083C47.7417 112.342 41.65 118.433 41.65 125.8 41.65 126.367 41.225 126.792 40.8 127.075 38.25 128.208 38.25 130.192 38.25 132.458 38.25 136.142 41.225 139.117 44.9083 139.117H98.7417C102.425 139.117 105.542 136.142 105.542 132.458 105.542 130.192 105.542 128.208 102.992 127.075z" fill="url(#paint0_linear)"/><path d="M43.9167 128.35C43.0667 128.35 42.5 127.783 42.5 126.933 42.5 126.083 43.0667 125.517 43.9167 125.517H102C102.85 125.517 103.417 126.083 103.417 126.933 103.417 127.783 102.85 128.35 102 128.35H43.9167z" fill="url(#paint1_linear)"/><path d="M139.117 61.7667H88.6835C86.8418 61.7667 85.2835 60.2083 85.2835 58.3667 85.2835 56.525 86.8418 54.9667 88.5418 54.1167 90.5252 52.9833 92.0835 50.7167 92.0835 48.3083V44.9083C92.0835 41.225 89.1085 38.25 85.2835 38.25H58.3668C54.6835 38.25 51.7085 41.225 51.7085 44.9083V48.3083C51.7085 49.4417 51.9918 50.575 52.5585 51.5667 54.5418 54.9667 58.3668 58.225 58.3668 62.1917v12.75C58.3668 78.9083 54.5418 82.1667 52.5585 85.5667 51.9918 86.5583 51.7085 87.6917 51.7085 88.825V92.0833C51.7085 95.7667 54.6835 98.8834 58.3668 98.8834H85.2835C88.9668 98.8834 92.0835 95.9083 92.0835 92.0833V88.6833C92.0835 86.1333 90.5252 84.0083 88.5418 82.875 86.9835 81.8833 85.2835 80.4667 85.2835 78.625 85.2835 76.7833 86.8418 75.225 88.6835 75.225H139.117C142.8 75.225 145.917 72.25 145.917 68.425 145.917 64.6 142.942 61.7667 139.117 61.7667z" fill="url(#paint2_linear)"/><path d="M84.2915 79.4751h-25.5" stroke="url(#paint3_linear)" stroke-width="3" stroke-linecap="round"/><path d="M84.2918 59.6416H60.2085" stroke="url(#paint4_linear)" stroke-width="3" stroke-linecap="round"/><defs><linearGradient id="paint0_linear" x1="52.7642" y1="125.729" x2="105.543" y2="125.729" gradientUnits="userSpaceOnUse"><stop stop-color="#e1d8ff"/><stop offset="1" stop-color="#f4ecff"/></linearGradient><linearGradient id="paint1_linear" x1="42.5" y1="126.969" x2="103.417" y2="126.969" gradientUnits="userSpaceOnUse"><stop stop-color="#4614e8"/><stop offset="1" stop-color="#bca7ff"/></linearGradient><linearGradient id="paint2_linear" x1="72.0275" y1="68.5315" x2="145.917" y2="68.5315" gradientUnits="userSpaceOnUse"><stop stop-color="#e1d8ff"/><stop offset="1" stop-color="#f4ecff"/></linearGradient><linearGradient id="paint3_linear" x1="-nan" y1="-nan" x2="-nan" y2="-nan" gradientUnits="userSpaceOnUse"><stop stop-color="#bba6ff"/><stop offset="1" stop-color="#cdbbef"/></linearGradient><linearGradient id="paint4_linear" x1="-nan" y1="-nan" x2="-nan" y2="-nan" gradientUnits="userSpaceOnUse"><stop stop-color="#bba6ff"/><stop offset="1" stop-color="#cdbbef"/></linearGradient></defs></svg>