<svg width="170" height="170" viewBox="0 0 170 170" fill="none" xmlns="http://www.w3.org/2000/svg"><path d="M43.9166 19.8333H116.167C120.133 19.8333 123.25 22.9499 123.25 26.9166V136C123.25 139.967 120.133 143.083 116.167 143.083H43.9166C39.9499 143.083 36.8333 139.967 36.8333 136V26.9166C36.8333 22.9499 39.9499 19.8333 43.9166 19.8333z" fill="url(#paint0_linear)" fill-opacity=".5"/><path d="M53.8333 28.3333H126.083C130.05 28.3333 133.167 31.4499 133.167 35.4166V144.5C133.167 148.467 130.05 151.583 126.083 151.583H53.8333C49.8667 151.583 46.75 148.467 46.75 144.5V35.4166C46.75 31.4499 49.8667 28.3333 53.8333 28.3333z" fill="url(#paint1_linear)"/><path d="M122.542 51.7083H61.625" stroke="url(#paint2_linear)" stroke-width="3" stroke-linecap="round"/><path d="M122.542 64.4583H61.625" stroke="url(#paint3_linear)" stroke-width="3" stroke-linecap="round"/><path d="M122.542 77.2083H61.625" stroke="url(#paint4_linear)" stroke-width="3" stroke-linecap="round"/><path d="M122.542 89.9583H61.625" stroke="url(#paint5_linear)" stroke-width="3" stroke-linecap="round"/><path d="M82.875 126.792H61.625" stroke="url(#paint6_linear)" stroke-width="3" stroke-linecap="round"/><path fill-rule="evenodd" clip-rule="evenodd" d="M123.108 126.508C123.108 126.933 122.967 127.217 122.967 127.5 122.967 127.783 122.967 128.208 123.108 128.633 123.25 129.342 123.392 130.192 123.108 131.042 122.825 131.75 122.117 132.317 121.55 132.742 121.267 133.025 120.983 133.167 120.7 133.45 120.417 133.733 120.275 134.017 119.992 134.3 119.567 134.867 119 135.575 118.292 136 117.867 136 117.442 136 117.017 136 116.592 136 116.167 135.858 115.742 135.858 115.317 135.858 115.033 135.717 114.75 135.717 114.467 135.717 114.042 135.717 113.617 135.858 112.908 136 112.058 136.142 111.208 135.858 110.5 135.575 109.933 134.867 109.508 134.3 109.225 134.017 109.083 133.733 108.8 133.45 108.517 133.167 108.233 133.025 107.95 132.742 107.383 132.317 106.675 131.75 106.25 131.042 105.967 130.192 106.108 129.342 106.25 128.633 106.25 128.208 106.392 127.925 106.392 127.642 106.392 127.358 106.392 126.933 106.25 126.508 106.108 125.8 105.967 124.95 106.25 124.1 106.533 123.392 107.242 122.825 107.808 122.4 108.092 122.117 108.375 121.975 108.658 121.692 108.942 121.408 109.083 121.125 109.367 120.842 109.792 120.275 110.358 119.567 111.067 119.142 111.917 118.858 112.767 119 113.475 119.142 113.9 119.142 114.183 119.283 114.467 119.283 114.75 119.283 115.175 119.283 115.6 119.142 116.308 119 117.158 118.858 118.008 119.142 118.717 119.425 119.283 120.133 119.708 120.7 119.992 120.983 120.133 121.267 120.417 121.55 120.7 121.833 120.983 121.975 121.267 122.258 121.833 122.683 122.542 123.25 122.967 123.958 123.392 124.808 123.25 125.658 123.108 126.508zM108.658 130.05C108.942 130.758 109.225 131.325 109.792 131.75L110.5 131.042C109.65 130.192 109.083 128.917 109.083 127.5 109.083 124.383 111.633 121.833 114.75 121.833 116.167 121.833 117.442 122.4 118.433 123.108L119.142 122.4C118.575 121.975 118.008 121.55 117.442 121.267 116.592 120.983 115.742 120.7 114.892 120.7 114.042 120.7 113.05 120.842 112.342 121.267 111.492 121.55 110.783 122.117 110.217 122.683 109.65 123.25 109.083 123.958 108.8 124.808 108.517 125.658 108.233 126.508 108.233 127.358 108.092 128.35 108.233 129.342 108.658 130.05zM119.425 132.175C119.992 131.608 120.558 130.9 120.842 130.05 121.125 129.2 121.408 128.35 121.408 127.5 121.408 126.65 121.267 125.658 120.842 124.95 120.558 124.242 120.275 123.675 119.708 123.25L119 123.958C119.85 124.808 120.417 126.083 120.417 127.5 120.417 130.617 117.867 133.167 114.75 133.167 113.333 133.167 112.058 132.6 111.067 131.892L110.358 132.6C110.925 133.025 111.492 133.45 112.058 133.733 112.908 134.017 113.758 134.3 114.608 134.3 115.458 134.3 116.45 134.158 117.158 133.733 118.15 133.308 118.858 132.883 119.425 132.175z" fill="url(#paint7_linear)"/><defs><linearGradient id="paint0_linear" x1="55.4722" y1="81.4582" x2="123.25" y2="81.4582" gradientUnits="userSpaceOnUse"><stop stop-color="#e1d8ff"/><stop offset="1" stop-color="#f4ecff"/></linearGradient><linearGradient id="paint1_linear" x1="65.3889" y1="89.9582" x2="133.167" y2="89.9582" gradientUnits="userSpaceOnUse"><stop stop-color="#e1d8ff"/><stop offset="1" stop-color="#f4ecff"/></linearGradient><linearGradient id="paint2_linear" x1="-nan" y1="-nan" x2="-nan" y2="-nan" gradientUnits="userSpaceOnUse"><stop stop-color="#bba6ff"/><stop offset="1" stop-color="#cdbbef"/></linearGradient><linearGradient id="paint3_linear" x1="-nan" y1="-nan" x2="-nan" y2="-nan" gradientUnits="userSpaceOnUse"><stop stop-color="#bba6ff"/><stop offset="1" stop-color="#cdbbef"/></linearGradient><linearGradient id="paint4_linear" x1="-nan" y1="-nan" x2="-nan" y2="-nan" gradientUnits="userSpaceOnUse"><stop stop-color="#bba6ff"/><stop offset="1" stop-color="#cdbbef"/></linearGradient><linearGradient id="paint5_linear" x1="-nan" y1="-nan" x2="-nan" y2="-nan" gradientUnits="userSpaceOnUse"><stop stop-color="#bba6ff"/><stop offset="1" stop-color="#cdbbef"/></linearGradient><linearGradient id="paint6_linear" x1="-nan" y1="-nan" x2="-nan" y2="-nan" gradientUnits="userSpaceOnUse"><stop stop-color="#bba6ff"/><stop offset="1" stop-color="#cdbbef"/></linearGradient><linearGradient id="paint7_linear" x1="114.75" y1="119" x2="114.75" y2="136" gradientUnits="userSpaceOnUse"><stop stop-color="#4614e8"/><stop offset="1" stop-color="#bca7ff"/></linearGradient></defs></svg>