<svg width="170" height="170" viewBox="0 0 170 170" fill="none" xmlns="http://www.w3.org/2000/svg"><path d="M29.1834 53.4084H36.6918C38.6751 53.4084 40.2334 54.9667 40.2334 56.95L53.9751 112.058C50.1501 113.758 47.4584 117.583 47.4584 121.975 47.4584 127.925 52.2751 132.742 58.2251 132.742h4.25C62.0501 133.875 61.7668 135.15 61.7668 136.283 61.7668 142.233 66.5834 147.05 72.5334 147.05 78.4834 147.05 83.3001 142.233 83.3001 136.283 83.3001 135.008 83.0168 133.875 82.5918 132.742H105.542C105.117 133.875 104.833 135.15 104.833 136.283 104.833 142.233 109.65 147.05 115.6 147.05 121.55 147.05 126.367 142.233 126.367 136.283 126.367 130.333 121.55 125.517 115.6 125.517H58.3668C56.3834 125.517 54.8251 123.958 54.8251 121.975 54.8251 119.992 56.3834 118.433 58.3668 118.433H124.95L141.525 60.6333H48.7334L47.1751 54.4C46.0418 49.725 41.7918 46.1833 36.6918 46.1833H29.1834C23.2334 46.1833 18.4167 51 18.4167 56.95H25.6417C25.6417 55.1084 27.2001 53.4084 29.1834 53.4084zM76.5001 136.567C76.5001 138.55 74.9418 140.108 72.9584 140.108 70.9751 140.108 69.4168 138.55 69.4168 136.567 69.4168 134.583 70.9751 133.025 72.9584 133.025 74.8001 132.883 76.5001 134.442 76.5001 136.567zM119.708 136.567C119.708 138.55 118.15 140.108 116.167 140.108 114.183 140.108 112.625 138.55 112.625 136.567 112.625 134.583 114.183 133.025 116.167 133.025 118.15 133.025 119.708 134.442 119.708 136.567z" fill="url(#paint0_linear)"/><path d="M70.9751 107.525 62.05 70.55" stroke="url(#paint1_linear)" stroke-width="3" stroke-linecap="round"/><path d="M110.075 107.525 119 70.55" stroke="url(#paint2_linear)" stroke-width="3" stroke-linecap="round"/><path d="M91.2334 106.958V70.125" stroke="url(#paint3_linear)" stroke-width="3" stroke-linecap="round"/><path d="M87.2668 27.6249C87.2668 25.6416 88.8252 24.0833 90.8085 24.0833 92.7918 24.0833 94.3502 25.6416 94.3502 27.6249V34.8499C94.3502 36.8333 92.7918 38.3916 90.8085 38.3916 88.8252 38.3916 87.2668 36.8333 87.2668 34.8499V27.6249v0z" fill="url(#paint4_linear)"/><path d="M62.7583 40.7999C61.3416 39.3833 61.3416 37.1166 62.7583 35.7 64.175 34.2833 66.4416 34.2833 67.8583 35.7L72.9583 40.7999C74.375 42.2166 74.375 44.4833 72.9583 45.8999 71.5416 47.3166 69.275 47.3166 67.8583 45.8999L62.7583 40.7999z" fill="url(#paint5_linear)"/><path d="M108.8 45.8999C107.383 44.4833 107.383 42.2166 108.8 40.7999L113.9 35.7C115.317 34.2833 117.583 34.2833 119 35.7 120.417 37.1166 120.417 39.3833 119 40.7999L113.9 45.8999C112.483 47.3166 110.075 47.3166 108.8 45.8999z" fill="url(#paint6_linear)"/><defs><linearGradient id="paint0_linear" x1="34.045" y1="132.915" x2="99.2117" y2="71.9987" gradientUnits="userSpaceOnUse"><stop stop-color="#e2d9ff"/><stop offset="1" stop-color="#f2eaff"/></linearGradient><linearGradient id="paint1_linear" x1="70.6183" y1="106.009" x2="62.7498" y2="73.4107" gradientUnits="userSpaceOnUse"><stop stop-color="#bba6ff"/><stop offset="1" stop-color="#cdbbef"/></linearGradient><linearGradient id="paint2_linear" x1="110.544" y1="105.966" x2="118.412" y2="73.3672" gradientUnits="userSpaceOnUse"><stop stop-color="#bba6ff"/><stop offset="1" stop-color="#cdbbef"/></linearGradient><linearGradient id="paint3_linear" x1="-nan" y1="-nan" x2="-nan" y2="-nan" gradientUnits="userSpaceOnUse"><stop stop-color="#bba6ff"/><stop offset="1" stop-color="#cdbbef"/></linearGradient><linearGradient id="paint4_linear" x1="90.8744" y1="24.0833" x2="90.8744" y2="38.5266" gradientUnits="userSpaceOnUse"><stop stop-color="#4614e8"/><stop offset="1" stop-color="#bca7ff"/></linearGradient><linearGradient id="paint5_linear" x1="62.7848" y1="35.7206" x2="72.9953" y2="45.9311" gradientUnits="userSpaceOnUse"><stop stop-color="#4614e8"/><stop offset="1" stop-color="#bca7ff"/></linearGradient><linearGradient id="paint6_linear" x1="111.286" y1="38.2781" x2="116.392" y2="43.3832" gradientUnits="userSpaceOnUse"><stop stop-color="#4614e8"/><stop offset="1" stop-color="#bca7ff"/></linearGradient></defs></svg>