<svg width="170" height="170" viewBox="0 0 170 170" fill="none" xmlns="http://www.w3.org/2000/svg"><path d="M130.617 60.6333 124.1 54.1166C122.967 52.9833 121.267 52.9833 120.133 54.1166L119.283 54.9666 116.45 57.7999 105.258 68.9916C104.125 70.1249 104.125 71.8249 105.258 72.9583L111.775 79.4749 112.625 80.3249C113.758 81.4583 115.458 81.4583 116.592 80.3249L130.617 66.2999C132.175 64.7416 132.175 62.1916 130.617 60.6333z" fill="url(#paint0_linear)"/><path d="M107.95 37.9666C107.242 37.2583 106.25 36.8333 105.117 36.8333 104.125 36.8333 102.992 37.2583 102.283 37.9666L88.2582 51.9916C87.1249 53.1249 87.1249 54.8249 88.2582 55.9582L89.1082 56.8082 91.9415 59.6416 95.6249 63.3249C96.7582 64.4582 98.4582 64.4582 99.5915 63.3249L110.783 52.1332 113.617 49.2999 114.467 48.4499C115.6 47.3166 115.6 45.6166 114.467 44.4832L107.95 37.9666z" fill="url(#paint1_linear)"/><path d="M108.942 87.9749 106.108 85.1416 97.7499 76.9249 94.7749 73.95 83.4415 62.6166 80.6082 59.7833 77.7749 56.95 46.6082 88.1166C37.2582 97.4666 37.2582 112.625 46.6082 122.117 51.1415 126.65 57.2332 129.2 63.6082 129.2 69.9832 129.2 76.0749 126.65 80.6082 122.117L111.775 90.9499 108.942 87.9749z" fill="url(#paint2_linear)"/><path fill-rule="evenodd" clip-rule="evenodd" d="M65.45 83.5833C59.7833 89.2499 59.7833 98.3166 65.45 103.842 71.1166 109.508 80.1833 109.508 85.7083 103.842L82.7333 100.867C78.7666 104.833 72.3916 104.833 68.4249 100.867 64.4583 96.8999 64.4583 90.5249 68.4249 86.5582L65.45 83.5833z" fill="url(#paint3_linear)"/><path d="M76.5 95.3415C77.6736 95.3415 78.625 94.3902 78.625 93.2165 78.625 92.0429 77.6736 91.0916 76.5 91.0916 75.3264 91.0916 74.375 92.0429 74.375 93.2165 74.375 94.3902 75.3264 95.3415 76.5 95.3415z" fill="#cdbbf0"/><defs><linearGradient id="paint0_linear" x1="118.073" y1="52.1425" x2="118.073" y2="82.3033" gradientUnits="userSpaceOnUse"><stop stop-color="#4614e8"/><stop offset="1" stop-color="#bca7ff"/></linearGradient><linearGradient id="paint1_linear" x1="101.349" y1="36.8333" x2="101.349" y2="65.338" gradientUnits="userSpaceOnUse"><stop stop-color="#4614e8"/><stop offset="1" stop-color="#bca7ff"/></linearGradient><linearGradient id="paint2_linear" x1="46.0187" y1="114.993" x2="90.9987" y2="80.4396" gradientUnits="userSpaceOnUse"><stop stop-color="#e2d9ff"/><stop offset="1" stop-color="#f2eaff"/></linearGradient><linearGradient id="paint3_linear" x1="66.2905" y1="103.024" x2="74.3538" y2="94.9606" gradientUnits="userSpaceOnUse"><stop stop-color="#bba6ff"/><stop offset="1" stop-color="#cdbbef"/></linearGradient></defs></svg>