<svg width="170" height="170" viewBox="0 0 170 170" fill="none" xmlns="http://www.w3.org/2000/svg"><rect x="71" y="86" width="33" height="62" rx="5" fill="url(#paint0_linear)"/><path d="M39.8879 124.999C36.5904 129.369 36.0785 135.137 38.5498 140.058 41.0105 144.958 45.9602 148 51.4642 148H74.962L84.001 130.015 73.1554 122.821 87.6162 93.8061V115.628L98.4618 122.821 94.2438 148H116.538C122.038 148 126.988 144.958 129.449 140.058 131.92 135.144 131.412 129.376 128.118 125.006 125.314 121.283 123.768 116.674 123.768 112.031 123.768 95.3456 115.842 78.5067 103.626 68.2319 110.866 67.4509 116.538 61.4073 116.538 54H109.307C109.307 57.9657 106.063 61.1939 102.077 61.1939 92.0084 61.1939 80.7736 61.1939 75.2843 61.1939 57.0034 69.3923 44.2338 90.765 44.2338 112.055 44.2375 116.752 42.7333 121.23 39.8879 124.999v0z" fill="url(#paint1_linear)"/><path d="M96.563 54C98.5908 54 100.418 52.7753 101.188 50.8995L106.483 38.0065C107.65 35.1656 99.4368 32.4243 102.503 32.25v0C99.2291 32.2251 97.7901 31.1067 95.628 29.4179 93.099 27.4498 89.9558 25 84.0001 25 78.0444 25 74.9012 27.4498 72.372 29.4179 70.1846 31.1243 68.7421 32.25 65.5734 32.2606v0C62.5281 32.0835 60.3426 35.1474 61.5015 37.9691L66.8119 50.8995C67.5823 52.7753 69.4092 54 71.437 54H96.563z" fill="url(#paint2_linear)"/><defs><linearGradient id="paint0_linear" x1="87.5" y1="86" x2="87.5" y2="148" gradientUnits="userSpaceOnUse"><stop stop-color="#4614e8"/><stop offset="1" stop-color="#bca7ff"/></linearGradient><linearGradient id="paint1_linear" x1="57.2745" y1="54" x2="131" y2="54" gradientUnits="userSpaceOnUse"><stop stop-color="#e1d8ff"/><stop offset="1" stop-color="#f4ecff"/></linearGradient><linearGradient id="paint2_linear" x1="69.7843" y1="25" x2="109" y2="25" gradientUnits="userSpaceOnUse"><stop stop-color="#e1d8ff"/><stop offset="1" stop-color="#f4ecff"/></linearGradient></defs></svg>