<svg width="170" height="170" viewBox="0 0 170 170" fill="none" xmlns="http://www.w3.org/2000/svg"><path d="M54.07 82.8949C51.9512 80.8376 50.6344 77.9781 50.6344 74.8198V71.3131C50.6344 65.0638 55.7853 59.9797 62.1163 59.9797 68.4473 59.9797 73.5982 65.064 73.5982 71.3131V74.8198C73.5982 78.0174 72.2477 80.9076 70.0827 82.9701L75.639 85.0155C77.369 81.6371 80.9173 79.3137 85.0071 79.3137 89.1024 79.3137 92.6551 81.6432 94.3822 85.0293L100.121 82.9396C97.9744 80.8792 96.6375 78.0014 96.6375 74.8198V71.3131C96.6375 65.0638 101.788 59.9797 108.119 59.9797 114.45 59.9797 119.601 65.064 119.601 71.3131V74.8198C119.601 77.9911 118.273 80.8605 116.139 82.9197L123.84 85.6593C125.773 86.3473 127.538 87.4165 129.035 88.7737L131.826 85.9632C137.171 80.5825 140.073 73.4694 139.999 65.9343 139.923 58.3992 136.88 51.3438 131.429 46.068 126.046 40.8584 118.954 38 111.426 38 111.33 38 111.234 38.0004 111.138 38.0013 103.503 38.0755 96.3558 41.0796 91.0083 46.4625L84.8664 52.6588 78.5916 46.5986C67.3387 35.7078 49.2072 35.8838 38.1739 46.9909 32.8288 52.3717 29.9264 59.4848 30.0014 67.0199 30.0766 74.555 33.1201 81.6104 38.5711 86.8861L40.7561 89C42.306 87.5387 44.1601 86.3929 46.211 85.6689L54.07 82.8949z" fill="url(#paint0_linear)"/><path d="M108 67C105.243 67 103 69.1557 103 71.8053V75.1947C103 77.8445 105.243 80 108 80 110.757 80 113 77.8443 113 75.1947V71.8055C113 69.1557 110.757 67 108 67z" fill="url(#paint1_linear)"/><path d="M62 67C59.2429 67 57 69.1557 57 71.8053V75.1947C57 77.8445 59.2431 80 62 80 64.7569 80 67 77.8443 67 75.1947V71.8055C67.0002 69.1557 64.7571 67 62 67z" fill="url(#paint2_linear)"/><path d="M73.4982 99.7996 77 98.5015C75.4273 96.6811 74.4542 94.2956 74.3987 91.6789L62.2948 87 48.9402 91.9507C47.8436 92.3572 46.847 92.9881 46 93.7883L65.8935 114V110.991C65.8933 105.983 68.9495 101.486 73.4982 99.7996z" fill="url(#paint3_linear)"/><path d="M85.0001 86C82.7945 86 81 87.7004 81 89.7906V91.2094C81 93.2996 82.7945 95 85.0001 95 87.2057 95 89 93.2996 89 91.2094V89.7906C89 87.7004 87.2057 86 85.0001 86z" fill="url(#paint4_linear)"/><path d="M107.923 87 95.5962 91.5975C95.538 94.1473 94.5674 96.4724 93 98.2507L96.5288 99.5365C101.082 101.196 104.142 105.599 104.142 110.492V114L124 93.5161C123.181 92.79 122.231 92.2139 121.195 91.8362L107.923 87z" fill="url(#paint5_linear)"/><path d="M94.4167 105.335 85.0598 102 75.596 105.346C73.4451 106.107 72 108.135 72 110.394v9.357L85.6718 133 98 120.563V110.378C97.9998 108.125 96.5597 106.099 94.4167 105.335z" fill="url(#paint6_linear)"/><defs><linearGradient id="paint0_linear" x1="53.7255" y1="38" x2="140" y2="38" gradientUnits="userSpaceOnUse"><stop stop-color="#e1d8ff"/><stop offset="1" stop-color="#f4ecff"/></linearGradient><linearGradient id="paint1_linear" x1="108" y1="67" x2="108" y2="80" gradientUnits="userSpaceOnUse"><stop stop-color="#4614e8"/><stop offset="1" stop-color="#784dff"/></linearGradient><linearGradient id="paint2_linear" x1="62" y1="67" x2="62" y2="80" gradientUnits="userSpaceOnUse"><stop stop-color="#4614e8"/><stop offset="1" stop-color="#784dff"/></linearGradient><linearGradient id="paint3_linear" x1="61.5" y1="87" x2="61.5" y2="114" gradientUnits="userSpaceOnUse"><stop stop-color="#cdbbf0"/><stop offset="1" stop-color="#bca7ff"/></linearGradient><linearGradient id="paint4_linear" x1="85" y1="86" x2="85" y2="95" gradientUnits="userSpaceOnUse"><stop stop-color="#4614e8"/><stop offset="1" stop-color="#784dff"/></linearGradient><linearGradient id="paint5_linear" x1="108.5" y1="87" x2="108.5" y2="114" gradientUnits="userSpaceOnUse"><stop stop-color="#cdbbf0"/><stop offset="1" stop-color="#bca7ff"/></linearGradient><linearGradient id="paint6_linear" x1="85" y1="102" x2="85" y2="133" gradientUnits="userSpaceOnUse"><stop stop-color="#cdbbf0"/><stop offset="1" stop-color="#bca7ff"/></linearGradient></defs></svg>