<svg width="170" height="170" viewBox="0 0 170 170" fill="none" xmlns="http://www.w3.org/2000/svg"><path d="M53.975 81.0332C69.7013 81.0332 82.45 68.2845 82.45 52.5582 82.45 36.8319 69.7013 24.0833 53.975 24.0833 38.2487 24.0833 25.5 36.8319 25.5 52.5582 25.5 68.2845 38.2487 81.0332 53.975 81.0332z" fill="url(#paint0_linear)"/><path d="M53.975 147.333C69.7013 147.333 82.45 134.585 82.45 118.858 82.45 103.132 69.7013 90.3833 53.975 90.3833 38.2487 90.3833 25.5 103.132 25.5 118.858 25.5 134.585 38.2487 147.333 53.975 147.333z" fill="url(#paint1_linear)"/><path d="M119.425 81.0332C135.151 81.0332 147.9 68.2845 147.9 52.5582 147.9 36.8319 135.151 24.0833 119.425 24.0833 103.699 24.0833 90.95 36.8319 90.95 52.5582 90.95 68.2845 103.699 81.0332 119.425 81.0332z" fill="url(#paint2_linear)"/><path d="M119.425 147.333C135.151 147.333 147.9 134.585 147.9 118.858 147.9 103.132 135.151 90.3833 119.425 90.3833 103.699 90.3833 90.95 103.132 90.95 118.858 90.95 134.585 103.699 147.333 119.425 147.333z" fill="url(#paint3_linear)"/><path fill-rule="evenodd" clip-rule="evenodd" d="M53.8333 34.7083C44.0583 34.7083 36.125 42.6416 36.125 52.4166 36.125 62.1916 44.0583 70.1249 53.8333 70.1249v-4.25C46.4667 65.8749 40.375 59.7833 40.375 52.4166 40.375 45.0499 46.4667 38.9583 53.8333 38.9583v-4.25z" fill="url(#paint4_linear)"/><path fill-rule="evenodd" clip-rule="evenodd" d="M118.292 34.7083C108.517 34.7083 100.583 42.6416 100.583 52.4166 100.583 62.1916 108.517 70.1249 118.292 70.1249v-4.25C110.925 65.8749 104.833 59.7833 104.833 52.4166 104.833 45.0499 110.925 38.9583 118.292 38.9583v-4.25z" fill="url(#paint5_linear)"/><path fill-rule="evenodd" clip-rule="evenodd" d="M53.8333 100.583C44.0583 100.583 36.125 108.517 36.125 118.292 36.125 128.067 44.0583 136 53.8333 136v-4.25C46.4667 131.75 40.375 125.658 40.375 118.292 40.375 110.925 46.4667 104.833 53.8333 104.833v-4.25z" fill="url(#paint6_linear)"/><defs><linearGradient id="paint0_linear" x1="37.753" y1="52.4878" x2="82.3093" y2="52.4878" gradientUnits="userSpaceOnUse"><stop stop-color="#e1d8ff"/><stop offset="1" stop-color="#f4ecff"/></linearGradient><linearGradient id="paint1_linear" x1="37.753" y1="118.929" x2="82.3093" y2="118.929" gradientUnits="userSpaceOnUse"><stop stop-color="#e1d8ff"/><stop offset="1" stop-color="#f4ecff"/></linearGradient><linearGradient id="paint2_linear" x1="103.255" y1="52.4878" x2="147.811" y2="52.4878" gradientUnits="userSpaceOnUse"><stop stop-color="#e1d8ff"/><stop offset="1" stop-color="#f4ecff"/></linearGradient><linearGradient id="paint3_linear" x1="119.407" y1="90.5241" x2="119.407" y2="147.333" gradientUnits="userSpaceOnUse"><stop stop-color="#4614e8"/><stop offset="1" stop-color="#bca7ff"/></linearGradient><linearGradient id="paint4_linear" x1="37.6649" y1="52.4166" x2="51.716" y2="52.4166" gradientUnits="userSpaceOnUse"><stop stop-color="#bba6ff"/><stop offset="1" stop-color="#cdbbef"/></linearGradient><linearGradient id="paint5_linear" x1="102.123" y1="52.4166" x2="116.174" y2="52.4166" gradientUnits="userSpaceOnUse"><stop stop-color="#bba6ff"/><stop offset="1" stop-color="#cdbbef"/></linearGradient><linearGradient id="paint6_linear" x1="37.6649" y1="118.292" x2="51.716" y2="118.292" gradientUnits="userSpaceOnUse"><stop stop-color="#bba6ff"/><stop offset="1" stop-color="#cdbbef"/></linearGradient></defs></svg>