<svg width="39" height="39" viewBox="0 0 39 39" fill="none" xmlns="http://www.w3.org/2000/svg"><path d="M18.4246 1.56454C18.6265 1.15546 19.0431.896484 19.4994.896484 19.9556.896405 20.3723 1.15538 20.5742 1.56446L25.2491 11.0355C25.6887 11.926 26.5384 12.5434 27.5213 12.6862L37.9737 14.2056C38.4251 14.2713 38.8002 14.5875 38.9413 15.0214 39.0821 15.4552 38.9647 15.9315 38.638 16.25L31.0752 23.623C30.364 24.3163 30.0395 25.3151 30.2072 26.2939L31.9917 36.7025C32.0688 37.1522 31.884 37.6066 31.5149 37.8745 31.1458 38.1428 30.6565 38.1781 30.2527 37.9658L20.9037 33.0516C20.0246 32.5895 18.9744 32.5895 18.0951 33.0518L8.74692 37.9657C8.34306 38.178 7.85376 38.1424 7.48472 37.8744 7.1156 37.6062 6.93085 37.1517 7.00791 36.7022L8.79321 26.2944C8.96119 25.3153 8.63662 24.3163 7.92529 23.6228L.36198 16.2501C.0353528 15.9316-.0823059 15.4553.0586946 15.0215.199695 14.5876.574747 14.2714 1.02623 14.2057L11.4783 12.6863C12.4612 12.5434 13.3109 11.9261 13.7505 11.0354L18.4246 1.56454z" fill="url(#starLinear)"/><defs><linearGradient id="starLinear" x1="29.777" y1="36.8465" x2="12.011" y2="9.17202" gradientUnits="userSpaceOnUse"><stop stop-color="#2641d1" offset="0"/><stop offset="1" stop-color="#3333a3"/></linearGradient></defs></svg>