<svg width="396" height="557" viewBox="0 0 396 557" fill="none" xmlns="http://www.w3.org/2000/svg"><path fill-rule="evenodd" clip-rule="evenodd" d="M396 56C269.527 56 167 155.84 167 279 167 402.159 269.527 502 396 502V472C285.34 472 197 384.845 197 279 197 173.155 285.34 86 396 86V56z" fill="#dee6ef"/><ellipse cx="369.977" cy="273.934" rx="26.0227" ry="25.341" fill="#dee6ef"/><g clip-path="url(#clip0)"><rect x="3" y="4" width="289" height="534" rx="40" fill="#f4f7fa"/><path d="M245.987 556.556H51.8372C25.0852 556.556 3.2998 534.77 3.2998 508.018V48.9819C3.2998 22.2299 25.0852.444458 51.8372.444458H245.987C272.739.444458 294.524 22.2299 294.524 48.9819V508.018C294.524 534.77 272.739 556.556 245.987 556.556zM51.8372 3.45453C26.7408 3.45453 6.30988 23.8854 6.30988 48.9819V508.018C6.30988 533.115 26.7408 553.545 51.8372 553.545H245.987C271.083 553.545 291.514 533.115 291.514 508.018V48.9819C291.514 23.8854 271.083 3.45453 245.987 3.45453H51.8372z" fill="#dee6ef"/><path d="M246.363 547.902H52.2136C30.0143 547.902 11.9539 529.841 11.9539 507.642V48.6057C11.9539 26.4064 30.0143 8.34595 52.2136 8.34595H246.363C268.563 8.34595 286.623 26.4064 286.623 48.6057V507.642C286.623 529.841 268.563 547.902 246.363 547.902zM52.2136 10.6035c-20.9576.0-38.0022 17.0445-38.0022 38.0022V507.642C14.2114 528.599 31.256 545.644 52.2136 545.644H246.363C267.321 545.644 284.366 528.599 284.366 507.642V48.6057C284.366 27.648 267.321 10.6035 246.363 10.6035H52.2136z" fill="#dee6ef"/><path d="M297.535 171.642C297.535 172.884 296.18 173.9 294.525 173.9 292.869 173.9 291.514 172.884 291.514 171.642V124.234C291.514 122.992 292.869 121.976 294.525 121.976 296.18 121.976 297.535 122.992 297.535 124.234v47.408z" fill="#dee6ef"/><path d="M5.44454 158.36C4.88015 157.871 4.12763 157.57 3.29986 157.57 1.64433 157.57.289795 158.774.289795 160.204V163.289 184.51 187.596C.289795 188.311.628423 188.988 1.15518 189.477 1.71957 189.966 2.47209 190.267 3.29986 190.267 4.9554 190.267 6.30993 189.063 6.30993 187.633V184.548 163.327 160.242C6.30993 159.489 5.9713 158.812 5.44454 158.36z" fill="#dee6ef"/><path d="M5.44454 122.578C4.88015 122.089 4.12763 121.788 3.29986 121.788 1.64433 121.788.289795 122.992.289795 124.422V127.507 148.728 151.814C.289795 152.528.628423 153.206 1.15518 153.695 1.71957 154.184 2.47209 154.485 3.29986 154.485 4.9554 154.485 6.30993 153.281 6.30993 151.851V148.766 127.545 124.46C6.30993 123.707 5.9713 123.03 5.44454 122.578z" fill="#dee6ef"/><path d="M5.44454 79.7224C4.88015 79.2332 4.12763 78.9698 3.29986 78.9698 1.64433 78.9698.289795 80.1363.289795 81.6037V84.6514 96.8798 99.9275C.289795 100.642.628423 101.32 1.15518 101.771 1.71957 102.26 2.47209 102.524 3.29986 102.524 4.9554 102.524 6.30993 101.357 6.30993 99.8899V96.8422 84.6137 81.566C6.30993 80.8511 5.9713 80.2115 5.44454 79.7224z" fill="#dee6ef"/></g><rect x="21" y="18" width="256" height="520" rx="30" fill="#34449C"/><defs><linearGradient id="paint0_linear" x1="216.459" y1="520.432" x2="-43.8144" y2="330.01" gradientUnits="userSpaceOnUse"><stop stop-color="#34449c"/><stop offset="1" stop-color="#3333a3"/></linearGradient><clipPath id="clip0"><path d="M0 0h297.824v557H0z" fill="#fff"/></clipPath></defs></svg>