<?xml version="1.0" standalone="no"?>
<!DOCTYPE svg PUBLIC "-//W3C//DTD SVG 20010904//EN"
 "http://www.w3.org/TR/2001/REC-SVG-20010904/DTD/svg10.dtd">
<svg version="1.0" xmlns="http://www.w3.org/2000/svg"
 width="1194.000000pt" height="897.000000pt" viewBox="0 0 1194.000000 897.000000"
 preserveAspectRatio="xMidYMid meet">

<g transform="translate(0.000000,897.000000) scale(0.100000,-0.100000)"
fill="#000000" stroke="none">
<path d="M2940 6050 l0 -700 55 0 55 0 0 700 0 700 -55 0 -55 0 0 -700z"/>
<path d="M3530 6050 l0 -700 240 0 240 0 0 55 0 55 -185 0 -185 0 0 645 0 645
-55 0 -55 0 0 -700z"/>
<path d="M4666 6733 c-265 -56 -471 -251 -542 -513 -24 -88 -24 -262 0 -350
47 -172 175 -340 327 -427 80 -46 199 -85 282 -90 l77 -6 0 55 0 55 -67 6
c-241 21 -452 208 -512 452 -18 71 -16 214 4 282 63 217 238 384 450 428 39 8
82 15 98 15 26 0 27 2 27 55 l0 55 -37 -1 c-21 0 -69 -7 -107 -16z"/>
<path d="M6503 6680 c-96 -30 -144 -171 -93 -276 24 -49 50 -69 114 -85 54
-13 122 0 168 32 26 19 28 26 28 85 l0 64 -75 0 c-68 0 -75 -2 -75 -20 0 -17
7 -20 50 -20 l50 0 0 -41 c0 -36 -3 -41 -35 -55 -44 -18 -98 -18 -135 1 -41
21 -64 69 -64 135 0 96 47 150 132 150 43 0 87 -27 97 -60 7 -22 13 -24 33
-11 12 7 11 14 -2 40 -9 17 -27 38 -40 46 -30 20 -111 27 -153 15z"/>
<path d="M5780 6500 l0 -180 110 0 c103 0 110 1 110 20 0 19 -7 20 -90 20
l-90 0 0 160 c0 153 -1 160 -20 160 -19 0 -20 -7 -20 -180z"/>
<path d="M6060 6500 l0 -180 130 0 c123 0 130 1 130 20 0 19 -7 20 -105 20
l-105 0 0 65 0 65 95 0 c88 0 95 1 95 20 0 19 -7 20 -95 20 l-95 0 0 55 0 55
105 0 c98 0 105 1 105 20 0 19 -7 20 -130 20 l-130 0 0 -180z"/>
<path d="M6881 6658 c-5 -13 -27 -70 -49 -128 -22 -58 -50 -129 -61 -157 l-21
-53 25 0 c20 0 27 8 41 55 l18 56 79 -3 79 -3 20 -52 c16 -45 23 -53 45 -53
13 0 23 4 21 9 -1 5 -34 86 -73 180 -61 152 -72 171 -92 171 -15 0 -27 -8 -32
-22z m63 -102 c14 -41 26 -77 26 -80 0 -3 -27 -6 -60 -6 l-59 0 25 68 c14 37
27 73 29 80 7 21 12 14 39 -62z"/>
<path d="M7130 6500 l0 -180 110 0 c103 0 110 1 110 20 0 19 -7 20 -90 20
l-90 0 0 160 c0 153 -1 160 -20 160 -19 0 -20 -7 -20 -180z"/>
<path d="M4790 6123 c-57 -21 -70 -96 -24 -132 15 -12 37 -21 49 -21 38 0 75
37 75 75 0 54 -53 96 -100 78z"/>
<path d="M6180 5858 c-60 -31 -90 -89 -90 -173 0 -80 29 -132 90 -162 54 -28
92 -29 146 -4 64 29 88 72 92 161 2 63 -1 81 -20 115 -26 45 -93 85 -143 85
-17 0 -51 -10 -75 -22z m145 -40 c34 -27 55 -75 55 -128 0 -89 -51 -150 -125
-150 -74 0 -125 61 -125 150 0 89 51 150 125 150 28 0 51 -7 70 -22z"/>
<path d="M7004 5861 c-63 -29 -88 -72 -92 -156 -3 -58 1 -78 20 -114 34 -65
67 -86 138 -86 67 0 102 20 134 75 16 27 17 33 5 41 -22 14 -39 11 -39 -7 0
-8 -13 -29 -29 -45 -64 -64 -169 -19 -186 79 -18 106 34 192 115 192 36 0 48
-6 76 -35 30 -32 64 -46 64 -27 0 16 -40 71 -59 81 -40 22 -104 23 -147 2z"/>
<path d="M5760 5690 c0 -173 1 -180 20 -180 18 0 20 7 20 74 l0 73 87 5 c82 4
87 6 115 36 32 37 36 77 13 122 -19 37 -64 50 -172 50 l-83 0 0 -180z m202
123 c22 -20 23 -70 1 -95 -13 -14 -31 -18 -90 -18 l-73 0 0 65 0 65 72 0 c52
0 76 -4 90 -17z"/>
<path d="M6500 5690 l0 -180 110 0 c103 0 110 1 110 20 0 19 -7 20 -90 20
l-90 0 0 160 c0 153 -1 160 -20 160 -19 0 -20 -7 -20 -180z"/>
<path d="M6790 5690 c0 -173 1 -180 20 -180 19 0 20 7 20 180 0 173 -1 180
-20 180 -19 0 -20 -7 -20 -180z"/>
<path d="M7260 5865 c0 -3 29 -49 65 -103 l65 -97 0 -77 c0 -71 2 -78 20 -78
18 0 20 7 20 73 l0 74 70 101 c39 56 70 104 70 107 0 3 -10 5 -23 5 -17 0 -34
-19 -76 -86 l-54 -86 -55 86 c-43 69 -59 86 -78 86 -13 0 -24 -2 -24 -5z"/>
<path d="M2910 3220 l0 -150 84 0 c45 0 97 5 113 10 53 19 71 95 30 127 l-24
17 20 33 c16 29 17 38 7 63 -16 38 -53 50 -151 50 l-79 0 0 -150z m164 94 c9
-3 16 -16 16 -29 0 -27 -17 -35 -76 -35 -44 0 -44 0 -44 35 0 35 0 35 44 35
24 0 51 -3 60 -6z m20 -136 c20 -33 -4 -53 -68 -56 l-56 -3 0 41 0 41 56 -3
c41 -2 60 -8 68 -20z"/>
<path d="M3295 3358 c-3 -7 -22 -62 -44 -123 -22 -60 -44 -122 -50 -137 -10
-27 -9 -28 23 -28 29 0 34 4 42 33 10 32 10 32 74 32 64 0 64 0 74 -32 8 -29
13 -33 42 -33 l32 0 -35 98 c-19 53 -43 120 -53 147 -16 48 -18 50 -58 53 -28
2 -44 -1 -47 -10z m69 -112 c9 -27 16 -51 16 -53 0 -2 -18 -3 -40 -3 -22 0
-40 3 -40 7 0 21 35 112 41 106 3 -5 14 -30 23 -57z"/>
<path d="M3563 3356 c-35 -16 -49 -49 -39 -91 7 -27 41 -47 113 -65 48 -12 57
-22 48 -50 -13 -41 -93 -38 -113 4 -8 18 -16 22 -36 19 -55 -11 -11 -86 58
-98 80 -15 143 16 152 75 9 52 -22 85 -92 101 -65 15 -91 34 -73 55 18 22 77
18 91 -6 15 -24 68 -28 68 -6 0 8 -10 27 -22 41 -29 32 -106 43 -155 21z"/>
<path d="M3800 3220 l0 -150 30 0 30 0 0 150 0 150 -30 0 -30 0 0 -150z"/>
<path d="M4003 3363 c-90 -17 -124 -181 -52 -252 53 -54 154 -51 198 6 27 34
27 39 -9 52 -23 8 -30 7 -30 -3 0 -21 -34 -46 -62 -46 -14 0 -36 9 -49 19 -21
16 -24 28 -24 81 0 53 3 65 24 81 33 27 75 24 98 -5 15 -18 26 -23 46 -19 26
5 26 6 11 35 -23 45 -81 65 -151 51z"/>
</g>
</svg>
