<svg width="382" height="287" viewBox="0 0 382 287" fill="none" xmlns="http://www.w3.org/2000/svg"><g filter="url(#filter0_d)"><rect x="332" y="33" width="187" height="282" rx="20" transform="rotate(90 332 33)" fill="url(#paint0_linear)"/></g><path d="M116.6 112.429H128.461V116H112.993V71H116.6v41.429z" fill="#3b1d8f"/><path d="M97.6063 71H94v45H97.6063V71z" fill="#3b1d8f"/><path d="M134.872 93.5397C134.872 103.937 143.447 112.429 153.945 112.429V116C141.363 116 131.185 105.921 131.185 93.5397 131.265 81.0794 141.443 71 154.025 71V74.5714C143.447 74.5714 134.872 83.0635 134.872 93.5397z" fill="#3b1d8f"/><path d="M156.59 93.4603C156.59 94.8889 155.468 96 154.025 96 152.583 96 151.461 94.8889 151.461 93.4603 151.461 92.0318 152.583 90.9207 154.025 90.9207 155.388 90.9207 156.59 92.1111 156.59 93.4603z" fill="#3b1d8f"/><path opacity=".5" d="M93.376 163.4H99.352V164.376H96.952V169H95.776V164.376H93.376V163.4zM102.487 166.696V168.024H106.407V169H101.311V163.4H106.335V164.376H102.487V165.72H105.991V166.696H102.487zM110.979 166.184C111.39 166.221 111.747 166.301 112.051 166.424 112.361 166.541 112.598 166.68 112.763 166.84 112.934 166.995 113.083 167.176 113.211 167.384 113.345 167.587 113.443 167.781 113.507 167.968 113.571 168.149 113.651 168.339 113.747 168.536 113.843 168.733 113.945 168.888 114.051 169H112.731C112.673 168.947 112.611 168.845 112.547 168.696 112.483 168.547 112.422 168.389 112.363 168.224 112.31 168.059 112.225 167.883 112.107 167.696 111.995 167.504 111.867 167.336 111.723 167.192 111.579 167.043 111.377 166.92 111.115 166.824 110.854 166.723 110.555 166.672 110.219 166.672H109.755V169H108.579V163.4H109.755V165.704H109.931C110.214 165.704 110.449 165.669 110.635 165.6 110.822 165.525 110.955 165.429 111.035 165.312 111.115 165.189 111.19 165.053 111.259 164.904 111.329 164.755 111.382 164.605 111.419 164.456 111.462 164.301 111.537 164.155 111.643 164.016 111.755 163.872 111.889 163.749 112.043 163.648 112.198 163.547 112.427 163.472 112.731 163.424 113.041 163.376 113.409 163.368 113.835 163.4V164.368C113.537 164.336 113.289 164.341 113.091 164.384 112.899 164.427 112.755 164.496 112.659 164.592 112.563 164.688 112.486 164.8 112.427 164.928 112.369 165.051 112.31 165.181 112.251 165.32 112.193 165.453 112.121 165.579 112.035 165.696 111.955 165.813 111.825 165.917 111.643 166.008 111.467 166.099 111.246 166.157 110.979 166.184zM118.154 166.504 119.57 163.4H121.01L117.682 169H115.946L117.514 167.24 115.05 163.4H116.49L118.154 166.504zM131.208 169.832H130.24V169H122.648V163.4H123.824V168.032H126.024V163.4H127.2V168.032H129.4V163.4H130.576V168.032H131.208V169.832zM134.507 168.136 137.691 163.4H139.475V169H138.299V164.376L135.211 169H133.331V163.4H134.507V168.136zM144.682 162.952C144.26 162.952 143.927 162.827 143.682 162.576 143.436 162.32 143.319 161.981 143.33 161.56H144.082C144.076 162.051 144.276 162.296 144.682 162.296 144.884 162.296 145.039 162.24 145.146 162.128 145.252 162.016 145.308 161.827 145.314 161.56H146.066C146.076 161.981 145.956 162.32 145.706 162.576 145.46 162.827 145.119 162.952 144.682 162.952zM143.018 168.136 146.202 163.4H147.986V169H146.81V164.376L143.722 169H141.842V163.4H143.018V168.136zM152.776 163.4H158.752V164.376H156.352V169H155.176V164.376H152.776V163.4zM166.526 169H165.214L164.59 167.712H161.19L160.574 169H159.342L162.166 163.4H163.71L166.526 169zM162.886 164.168 161.654 166.744H164.126L162.886 164.168zM171.543 163.4C172.273 163.4 172.839 163.565 173.239 163.896 173.639 164.221 173.839 164.68 173.839 165.272 173.839 165.864 173.639 166.325 173.239 166.656 172.839 166.981 172.273 167.144 171.543 167.144H169.343V169H168.167V163.4H171.543zM169.343 166.168H171.639C171.964 166.168 172.215 166.091 172.391 165.936 172.572 165.776 172.663 165.555 172.663 165.272 172.663 164.989 172.572 164.771 172.391 164.616 172.215 164.456 171.964 164.376 171.639 164.376H169.343V166.168zM176.823 168.136 180.007 163.4H181.791V169H180.615V164.376L177.527 169H175.647V163.4H176.823V168.136zM189.621 164.616C190.048 164.957 190.261 165.485 190.261 166.2 190.261 166.915 190.048 167.443 189.621 167.784 189.2 168.125 188.525 168.309 187.597 168.336V169H186.525V168.336C185.597 168.304 184.92 168.117 184.493 167.776 184.067 167.435 183.853 166.909 183.853 166.2 183.853 165.491 184.067 164.965 184.493 164.624 184.92 164.283 185.597 164.096 186.525 164.064V163.4H187.597V164.064C188.525 164.091 189.2 164.275 189.621 164.616zM187.597 164.968V167.432C188.115 167.405 188.491 167.293 188.725 167.096 188.965 166.899 189.085 166.6 189.085 166.2 189.085 165.8 188.965 165.501 188.725 165.304 188.491 165.107 188.115 164.995 187.597 164.968zM185.381 165.312C185.147 165.509 185.029 165.805 185.029 166.2 185.029 166.595 185.147 166.891 185.381 167.088 185.621 167.285 186.003 167.4 186.525 167.432V164.968C186.003 165 185.621 165.115 185.381 165.312z" fill="#3b1d8f"/><path d="M95.94 182.384H99.228C100.324 182.384 101.172 182.632 101.772 183.128 102.372 183.616 102.672 184.304 102.672 185.192 102.672 186.08 102.372 186.772 101.772 187.268 101.172 187.756 100.324 188 99.228 188H94.176V179.6H101.628V181.064H95.94V182.384zM95.94 186.536H99.372C99.86 186.536 100.236 186.42 100.5 186.188 100.772 185.948 100.908 185.616 100.908 185.192 100.908 184.768 100.772 184.44 100.5 184.208 100.236 183.968 99.86 183.848 99.372 183.848H95.94V186.536zM115.185 188H113.217L112.281 186.068H107.181L106.257 188H104.409L108.645 179.6H110.961L115.185 188zM109.725 180.752 107.877 184.616H111.585L109.725 180.752zM122.084 183.644C122.884 183.716 123.488 183.924 123.896 184.268 124.312 184.604 124.52 185.06 124.52 185.636 124.52 186.372 124.192 186.972 123.536 187.436 122.888 187.892 122.044 188.12 121.004 188.12 119.82 188.12 118.828 187.804 118.028 187.172 117.236 186.532 116.784 185.748 116.672 184.82L118.376 184.196C118.432 184.964 118.696 185.572 119.168 186.02 119.648 186.46 120.264 186.68 121.016 186.68 121.576 186.68 122.012 186.576 122.324 186.368 122.644 186.16 122.804 185.876 122.804 185.516 122.804 185.132 122.604 184.84 122.204 184.64 121.812 184.432 121.26 184.336 120.548 184.352L119.636 184.376 119.624 183.128 120.596 183.152C121.188 183.168 121.652 183.068 121.988 182.852 122.324 182.636 122.492 182.336 122.492 181.952 122.492 181.648 122.356 181.4 122.084 181.208 121.812 181.016 121.464 180.92 121.04 180.92 120.416 180.92 119.912 181.096 119.528 181.448 119.144 181.792 118.932 182.268 118.892 182.876L117.092 182.156C117.292 181.38 117.732 180.74 118.412 180.236 119.1 179.732 119.952 179.48 120.968 179.48 121.912 179.48 122.684 179.708 123.284 180.164 123.892 180.62 124.196 181.204 124.196 181.916 124.196 182.412 124.012 182.808 123.644 183.104 123.284 183.4 122.764 183.58 122.084 183.644zM128.433 180.668C129.433 179.876 130.777 179.48 132.465 179.48 134.153 179.48 135.497 179.876 136.497 180.668 137.497 181.46 137.997 182.524 137.997 183.86 137.997 185.164 137.497 186.2 136.497 186.968 135.497 187.736 134.153 188.12 132.465 188.12 130.777 188.12 129.433 187.736 128.433 186.968 127.433 186.2 126.933 185.164 126.933 183.86 126.933 182.524 127.433 181.46 128.433 180.668zM136.233 183.86C136.233 182.932 135.901 182.216 135.237 181.712 134.581 181.2 133.657 180.944 132.465 180.944 131.273 180.944 130.345 181.2 129.681 181.712 129.025 182.216 128.697 182.932 128.697 183.86 128.697 184.748 129.025 185.436 129.681 185.924 130.345 186.412 131.273 186.656 132.465 186.656 133.657 186.656 134.581 186.412 135.237 185.924 135.901 185.436 136.233 184.748 136.233 183.86zM147.693 183.596C148.997 183.94 149.649 184.652 149.649 185.732 149.649 186.42 149.357 186.972 148.773 187.388 148.189 187.796 147.385 188 146.361 188H141.093V179.6H146.481C147.369 179.6 148.065 179.792 148.569 180.176 149.073 180.56 149.325 181.092 149.325 181.772 149.325 182.58 148.781 183.188 147.693 183.596zM146.313 181.052H142.857V183.08H146.181C146.589 183.08 146.909 182.984 147.141 182.792 147.373 182.592 147.489 182.332 147.489 182.012 147.489 181.708 147.385 181.472 147.177 181.304 146.977 181.136 146.689 181.052 146.313 181.052zM142.857 186.548H146.433C146.873 186.548 147.213 186.452 147.453 186.26 147.693 186.068 147.813 185.796 147.813 185.444 147.813 185.132 147.685 184.884 147.429 184.7 147.181 184.508 146.837 184.412 146.397 184.412H142.857V186.548zM154.37 182.384H157.67C158.766 182.384 159.614 182.632 160.214 183.128 160.814 183.616 161.114 184.304 161.114 185.192 161.114 186.08 160.814 186.772 160.214 187.268 159.614 187.756 158.766 188 157.67 188H152.606V179.6H154.37V182.384zM162.338 188V179.6H164.102V188H162.338zM154.37 186.536H157.814C158.302 186.536 158.678 186.42 158.942 186.188 159.214 185.948 159.35 185.616 159.35 185.192 159.35 184.768 159.214 184.44 158.942 184.208 158.678 183.968 158.302 183.848 157.814 183.848H154.37V186.536zM171.917 178.928C171.285 178.928 170.785 178.74 170.417 178.364 170.049 177.98 169.873 177.472 169.889 176.84H171.017C171.009 177.576 171.309 177.944 171.917 177.944 172.221 177.944 172.453 177.86 172.613 177.692 172.773 177.524 172.857 177.24 172.865 176.84H173.993C174.009 177.472 173.829 177.98 173.453 178.364 173.085 178.74 172.573 178.928 171.917 178.928zM169.421 186.704 174.197 179.6H176.873V188H175.109V181.064L170.477 188H167.657V179.6H169.421V186.704z" fill="#3b1d8f"/><path d="M194 79.9C195.407 79.9 196.527 80.23 197.36 80.89 198.193 81.55 198.61 82.4367 198.61 83.55 198.61 84.6367 198.193 85.5 197.36 86.14 196.527 86.78 195.407 87.1 194 87.1 192.693 87.1 191.63 86.8233 190.81 86.27 189.997 85.7167 189.533 84.96 189.42 84H188.45v3H186.98V80H188.45V83.01H189.43C189.563 82.0433 190.033 81.2833 190.84 80.73 191.653 80.1767 192.707 79.9 194 79.9zM191.68 85.27C192.233 85.6767 193.007 85.88 194 85.88 194.993 85.88 195.763 85.6767 196.31 85.27 196.863 84.8633 197.14 84.29 197.14 83.55 197.14 82.7767 196.863 82.18 196.31 81.76 195.763 81.3333 194.993 81.12 194 81.12 193.007 81.12 192.233 81.3333 191.68 81.76 191.133 82.18 190.86 82.7767 190.86 83.55 190.86 84.29 191.133 84.8633 191.68 85.27zM205.413 80C206.326 80 207.033 80.2067 207.533 80.62 208.033 81.0267 208.283 81.6 208.283 82.34 208.283 83.08 208.033 83.6567 207.533 84.07 207.033 84.4767 206.326 84.68 205.413 84.68h-2.75V87H201.193V80H205.413zM202.663 83.46H205.533C205.94 83.46 206.253 83.3633 206.473 83.17 206.7 82.97 206.813 82.6933 206.813 82.34 206.813 81.9867 206.7 81.7133 206.473 81.52 206.253 81.32 205.94 81.22 205.533 81.22H202.663V83.46zM212.013 85.92 215.993 80H218.223v7H216.753V81.22L212.893 87H210.543V80H212.013V85.92zM229.271 80V85.79H230.071v2.25H228.861V87H221.881V88.04H220.671V85.79H221.731C221.978 85.79 222.168 85.6533 222.301 85.38 222.441 85.1067 222.511 84.6233 222.511 83.93V80H229.271zM223.381 85.79H227.801V81.21H223.981V83.93C223.981 84.9233 223.781 85.5433 223.381 85.79zM234.188 85.92 238.168 80H240.398v7H238.928V81.22L235.068 87H232.718V80H234.188V85.92zM248.017 83.42V80H249.487v7H248.017V84.38C247.31 85.1467 246.49 85.53 245.557 85.53 244.69 85.53 243.99 85.3 243.457 84.84 242.924 84.38 242.657 83.74 242.657 82.92V80H244.127V82.79C244.127 83.35 244.287 83.7567 244.607 84.01 244.927 84.2567 245.32 84.38 245.787 84.38 246.207 84.38 246.617 84.2933 247.017 84.12 247.417 83.9467 247.75 83.7133 248.017 83.42zM253.913 84.12V85.78H258.813V87H252.443V80H258.723V81.22H253.913V82.9H258.293V84.12H253.913zM265.661 85.88C266.541 85.88 267.255 85.7033 267.801 85.35 268.348 84.9967 268.645 84.5233 268.691 83.93L270.311 84.22C270.098 85.1 269.571 85.8 268.731 86.32 267.891 86.84 266.868 87.1 265.661 87.1 264.255 87.1 263.135 86.78 262.301 86.14 261.468 85.5 261.051 84.6367 261.051 83.55 261.051 82.4367 261.468 81.55 262.301 80.89 263.135 80.23 264.255 79.9 265.661 79.9 266.868 79.9 267.888 80.1667 268.721 80.7 269.561 81.2267 270.088 81.9433 270.301 82.85L268.701 83.22C268.668 82.5733 268.375 82.0633 267.821 81.69 267.275 81.31 266.555 81.12 265.661 81.12 264.668 81.12 263.895 81.3333 263.341 81.76 262.795 82.18 262.521 82.7767 262.521 83.55 262.521 84.29 262.795 84.8633 263.341 85.27 263.895 85.6767 264.668 85.88 265.661 85.88zM275.841 83.48C276.355 83.5267 276.801 83.6267 277.181 83.78 277.568 83.9267 277.865 84.1 278.071 84.3 278.285 84.4933 278.471 84.72 278.631 84.98 278.798 85.2333 278.921 85.4767 279.001 85.71 279.081 85.9367 279.181 86.1733 279.301 86.42 279.421 86.6667 279.548 86.86 279.681 87H278.031C277.958 86.9333 277.881 86.8067 277.801 86.62 277.721 86.4333 277.645 86.2367 277.571 86.03 277.505 85.8233 277.398 85.6033 277.251 85.37 277.111 85.13 276.951 84.92 276.771 84.74 276.591 84.5533 276.338 84.4 276.011 84.28 275.685 84.1533 275.311 84.09 274.891 84.09H274.311V87H272.841V80H274.311V82.88H274.531C274.885 82.88 275.178 82.8367 275.411 82.75 275.645 82.6567 275.811 82.5367 275.911 82.39 276.011 82.2367 276.105 82.0667 276.191 81.88 276.278 81.6933 276.345 81.5067 276.391 81.32 276.445 81.1267 276.538 80.9433 276.671 80.77 276.811 80.59 276.978 80.4367 277.171 80.31 277.365 80.1833 277.651 80.09 278.031 80.03 278.418 79.97 278.878 79.96 279.411 80V81.21C279.038 81.17 278.728 81.1767 278.481 81.23 278.241 81.2833 278.061 81.37 277.941 81.49 277.821 81.61 277.725 81.75 277.651 81.91 277.578 82.0633 277.505 82.2267 277.431 82.4 277.358 82.5667 277.268 82.7233 277.161 82.87 277.061 83.0167 276.898 83.1467 276.671 83.26 276.451 83.3733 276.175 83.4467 275.841 83.48zM283.309 85.92 287.289 80H289.519v7H288.049V81.22L284.189 87H281.839V80H283.309V85.92zM296.028 79.44C295.501 79.44 295.085 79.2833 294.778 78.97 294.471 78.65 294.325 78.2267 294.338 77.7H295.278C295.271 78.3133 295.521 78.62 296.028 78.62 296.281 78.62 296.475 78.55 296.608 78.41 296.741 78.27 296.811 78.0333 296.818 77.7H297.758C297.771 78.2267 297.621 78.65 297.308 78.97 297.001 79.2833 296.575 79.44 296.028 79.44zM293.948 85.92 297.928 80H300.158v7H298.688V81.22L294.828 87H292.478V80H293.948V85.92zM186.98 1e2H193.92v7H192.45V101.21h-4V107H186.98v-7zM197.746 100.89C198.58 100.23 199.7 99.9 201.106 99.9 202.513 99.9 203.633 100.23 204.466 100.89 205.3 101.55 205.716 102.437 205.716 103.55 205.716 104.637 205.3 105.5 204.466 106.14 203.633 106.78 202.513 107.1 201.106 107.1 199.7 107.1 198.58 106.78 197.746 106.14 196.913 105.5 196.496 104.637 196.496 103.55 196.496 102.437 196.913 101.55 197.746 100.89zM204.246 103.55C204.246 102.777 203.97 102.18 203.416 101.76 202.87 101.333 202.1 101.12 201.106 101.12 200.113 101.12 199.34 101.333 198.786 101.76 198.24 102.18 197.966 102.777 197.966 103.55 197.966 104.29 198.24 104.863 198.786 105.27 199.34 105.677 200.113 105.88 201.106 105.88 202.1 105.88 202.87 105.677 203.416 105.27 203.97 104.863 204.246 104.29 204.246 103.55zM209.506 1e2H215.616v7H214.146V101.21H210.976V103.53C210.976 104.237 210.903 104.84 210.756 105.34 210.61 105.84 210.426 106.213 210.206 106.46 209.993 106.707 209.736 106.883 209.436 106.99 209.136 107.097 208.856 107.143 208.596 107.13 208.336 107.123 208.066 107.08 207.786 107V105.79C208.04 105.863 208.27 105.89 208.476 105.87 208.69 105.843 208.873 105.77 209.026 105.65 209.18 105.53 209.296 105.293 209.376 104.94 209.463 104.587 209.506 104.117 209.506 103.53V1e2zM220.044 105.92 224.024 1e2H226.254v7H224.784V101.22L220.924 107H218.574v-7H220.044V105.92zM233.442 105.88C234.322 105.88 235.036 105.703 235.582 105.35 236.129 104.997 236.426 104.523 236.472 103.93L238.092 104.22C237.879 105.1 237.352 105.8 236.512 106.32 235.672 106.84 234.649 107.1 233.442 107.1 232.036 107.1 230.916 106.78 230.082 106.14 229.249 105.5 228.832 104.637 228.832 103.55 228.832 102.437 229.249 101.55 230.082 100.89 230.916 100.23 232.036 99.9 233.442 99.9 234.649 99.9 235.669 100.167 236.502 100.7 237.342 101.227 237.869 101.943 238.082 102.85L236.482 103.22C236.449 102.573 236.156 102.063 235.602 101.69 235.056 101.31 234.336 101.12 233.442 101.12 232.449 101.12 231.676 101.333 231.122 101.76 230.576 102.18 230.302 102.777 230.302 103.55 230.302 104.29 230.576 104.863 231.122 105.27 231.676 105.677 232.449 105.88 233.442 105.88z" fill="#3b1d8f"/><defs><filter id="filter0_d" x="0" y="0" width="382" height="287" filterUnits="userSpaceOnUse" color-interpolation-filters="sRGB"><feFlood flood-opacity="0" result="BackgroundImageFix"/><feColorMatrix in="SourceAlpha" type="matrix" values="0 0 0 0 0 0 0 0 0 0 0 0 0 0 0 0 0 0 127 0" result="hardAlpha"/><feOffset dy="17"/><feGaussianBlur stdDeviation="25"/><feColorMatrix type="matrix" values="0 0 0 0 0.735267 0 0 0 0 0.651667 0 0 0 0 1 0 0 0 0.48 0"/><feBlend mode="normal" in2="BackgroundImageFix" result="effect1_dropShadow"/><feBlend mode="normal" in="SourceGraphic" in2="effect1_dropShadow" result="shape"/></filter><linearGradient id="paint0_linear" x1="474.777" y1="305.473" x2="326.697" y2="159.544" gradientUnits="userSpaceOnUse"><stop stop-color="#f0ebff"/><stop offset="1" stop-color="#fff"/></linearGradient></defs></svg>