<svg width="194" height="63" viewBox="0 0 194 63" fill="none" xmlns="http://www.w3.org/2000/svg"><path d="M31.2114 58H47.5918v5H26.2308V0H31.2114V58z" fill="#3b1d8f"/><path d="M4.98053.0H0V63H4.98053V0z" fill="#3b1d8f"/><path d="M56.4461 31.5556C56.4461 46.1111 68.2887 58 82.7876 58v5C65.411 63 51.3549 48.8889 51.3549 31.5556 51.4655 14.1111 65.5217.0 82.8982.0V5C68.2887 5 56.4461 16.8889 56.4461 31.5556z" fill="#3b1d8f"/><path d="M86.4399 31.4444C86.4399 33.4444 84.8904 35 82.8982 35 80.906 35 79.3565 33.4444 79.3565 31.4444 79.3565 29.4444 80.906 27.8889 82.8982 27.8889 84.7798 27.8889 86.4399 29.5556 86.4399 31.4444z" fill="#3b1d8f"/><path d="M108.609 26H107.648V14.625H108.609V26zM112.375 17.5469 112.406 18.9922C112.724 18.4714 113.12 18.0755 113.594 17.8047 114.068 17.5286 114.591 17.3906 115.164 17.3906 116.07 17.3906 116.745 17.6458 117.188 18.1562 117.63 18.6667 117.854 19.4323 117.859 20.4531V26H116.93V20.4453C116.924 19.6901 116.763 19.1276 116.445 18.7578 116.133 18.388 115.63 18.2031 114.938 18.2031 114.359 18.2031 113.846 18.3854 113.398 18.75 112.956 19.1094 112.628 19.5964 112.414 20.2109V26H111.484V17.5469H112.375zM121.734 15.3828V17.5469h1.75V18.3125h-1.75v5.6328C121.734 24.4141 121.818 24.763 121.984 24.9922 122.156 25.2214 122.44 25.3359 122.836 25.3359 122.992 25.3359 123.245 25.3099 123.594 25.2578L123.633 26.0234C123.388 26.112 123.055 26.1562 122.633 26.1562 121.992 26.1562 121.526 25.9714 121.234 25.6016 120.943 25.2266 120.797 24.6771 120.797 23.9531V18.3125H119.242V17.5469H120.797V15.3828H121.734zM128.695 26.1562C127.977 26.1562 127.326 25.9792 126.742 25.625 126.164 25.2708 125.714 24.7786 125.391 24.1484 125.068 23.513 124.906 22.8021 124.906 22.0156V21.6797C124.906 20.8672 125.062 20.1354 125.375 19.4844 125.693 18.8333 126.133 18.3229 126.695 17.9531 127.258 17.5781 127.867 17.3906 128.523 17.3906 129.549 17.3906 130.362 17.7422 130.961 18.4453 131.565 19.1432 131.867 20.099 131.867 21.3125V21.8359H125.836V22.0156C125.836 22.974 126.109 23.7734 126.656 24.4141 127.208 25.0495 127.901 25.3672 128.734 25.3672 129.234 25.3672 129.674 25.276 130.055 25.0938 130.44 24.9115 130.789 24.6198 131.102 24.2188L131.688 24.6641C131 25.6589 130.003 26.1562 128.695 26.1562zM128.523 18.1875C127.82 18.1875 127.227 18.4453 126.742 18.9609 126.263 19.4766 125.971 20.1693 125.867 21.0391H130.938V20.9375C130.911 20.125 130.68 19.4635 130.242 18.9531 129.805 18.4427 129.232 18.1875 128.523 18.1875zM137.594 18.3438C137.396 18.3073 137.185 18.2891 136.961 18.2891 136.378 18.2891 135.883 18.4531 135.477 18.7812 135.076 19.1042 134.789 19.5755 134.617 20.1953V26H133.688V17.5469H134.602L134.617 18.8906C135.112 17.8906 135.906 17.3906 137 17.3906 137.26 17.3906 137.466 17.4245 137.617 17.4922L137.594 18.3438zM139.969 17.5469 140 18.9922C140.318 18.4714 140.714 18.0755 141.188 17.8047 141.661 17.5286 142.185 17.3906 142.758 17.3906 143.664 17.3906 144.339 17.6458 144.781 18.1562 145.224 18.6667 145.448 19.4323 145.453 20.4531V26H144.523V20.4453C144.518 19.6901 144.357 19.1276 144.039 18.7578 143.727 18.388 143.224 18.2031 142.531 18.2031 141.953 18.2031 141.44 18.3854 140.992 18.75 140.549 19.1094 140.221 19.5964 140.008 20.2109V26H139.078V17.5469H139.969zM153.211 26C153.117 25.7344 153.057 25.3411 153.031 24.8203 152.703 25.2474 152.284 25.5781 151.773 25.8125 151.268 26.0417 150.732 26.1562 150.164 26.1562 149.352 26.1562 148.693 25.9297 148.188 25.4766 147.688 25.0234 147.438 24.4505 147.438 23.7578 147.438 22.9349 147.779 22.2839 148.461 21.8047 149.148 21.3255 150.104 21.0859 151.328 21.0859H153.023V20.125C153.023 19.5208 152.836 19.0469 152.461 18.7031 152.091 18.3542 151.549 18.1797 150.836 18.1797 150.185 18.1797 149.646 18.3464 149.219 18.6797 148.792 19.013 148.578 19.4141 148.578 19.8828L147.641 19.875C147.641 19.2031 147.953 18.6224 148.578 18.1328 149.203 17.638 149.971 17.3906 150.883 17.3906 151.826 17.3906 152.568 17.6276 153.109 18.1016 153.656 18.5703 153.938 19.2266 153.953 20.0703v4C153.953 24.888 154.039 25.5 154.211 25.9062V26h-1zM150.273 25.3281C150.898 25.3281 151.456 25.1771 151.945 24.875 152.44 24.5729 152.799 24.1693 153.023 23.6641V21.8047H151.352C150.419 21.8151 149.69 21.987 149.164 22.3203 148.638 22.6484 148.375 23.1016 148.375 23.6797 148.375 24.1536 148.549 24.5469 148.898 24.8594 149.253 25.1719 149.711 25.3281 150.273 25.3281zM157.906 15.3828V17.5469h1.75V18.3125h-1.75v5.6328C157.906 24.4141 157.99 24.763 158.156 24.9922 158.328 25.2214 158.612 25.3359 159.008 25.3359 159.164 25.3359 159.417 25.3099 159.766 25.2578L159.805 26.0234C159.56 26.112 159.227 26.1562 158.805 26.1562 158.164 26.1562 157.698 25.9714 157.406 25.6016 157.115 25.2266 156.969 24.6771 156.969 23.9531V18.3125H155.414V17.5469H156.969V15.3828H157.906zM162.641 26H161.703V17.5469H162.641V26zM161.539 15.1016C161.539 14.9245 161.596 14.776 161.711 14.6562 161.826 14.5312 161.982 14.4688 162.18 14.4688 162.378 14.4688 162.534 14.5312 162.648 14.6562 162.768 14.776 162.828 14.9245 162.828 15.1016 162.828 15.2786 162.768 15.4271 162.648 15.5469 162.534 15.6667 162.378 15.7266 162.18 15.7266 161.982 15.7266 161.826 15.6667 161.711 15.5469 161.596 15.4271 161.539 15.2786 161.539 15.1016zM164.672 21.6484C164.672 20.8359 164.828 20.1042 165.141 19.4531 165.458 18.8021 165.904 18.2969 166.477 17.9375 167.055 17.5729 167.708 17.3906 168.438 17.3906 169.562 17.3906 170.474 17.7865 171.172 18.5781 171.87 19.3646 172.219 20.4089 172.219 21.7109V21.9062C172.219 22.724 172.06 23.4609 171.742 24.1172 171.43 24.7682 170.987 25.2708 170.414 25.625 169.841 25.9792 169.188 26.1562 168.453 26.1562 167.333 26.1562 166.422 25.763 165.719 24.9766 165.021 24.1849 164.672 23.138 164.672 21.8359v-.1875zM165.609 21.9062C165.609 22.9167 165.87 23.7474 166.391 24.3984 166.917 25.0443 167.604 25.3672 168.453 25.3672 169.297 25.3672 169.979 25.0443 170.5 24.3984 171.026 23.7474 171.289 22.8906 171.289 21.8281V21.6484C171.289 21.0026 171.169 20.4115 170.93 19.875 170.69 19.3385 170.354 18.9245 169.922 18.6328 169.49 18.3359 168.995 18.1875 168.438 18.1875 167.604 18.1875 166.924 18.5156 166.398 19.1719 165.872 19.8229 165.609 20.6771 165.609 21.7344V21.9062zM175.047 17.5469 175.078 18.9922C175.396 18.4714 175.792 18.0755 176.266 17.8047 176.74 17.5286 177.263 17.3906 177.836 17.3906 178.742 17.3906 179.417 17.6458 179.859 18.1562 180.302 18.6667 180.526 19.4323 180.531 20.4531V26H179.602V20.4453C179.596 19.6901 179.435 19.1276 179.117 18.7578 178.805 18.388 178.302 18.2031 177.609 18.2031 177.031 18.2031 176.518 18.3854 176.07 18.75 175.628 19.1094 175.299 19.5964 175.086 20.2109V26H174.156V17.5469H175.047zM188.289 26C188.195 25.7344 188.135 25.3411 188.109 24.8203 187.781 25.2474 187.362 25.5781 186.852 25.8125 186.346 26.0417 185.81 26.1562 185.242 26.1562 184.43 26.1562 183.771 25.9297 183.266 25.4766 182.766 25.0234 182.516 24.4505 182.516 23.7578 182.516 22.9349 182.857 22.2839 183.539 21.8047 184.227 21.3255 185.182 21.0859 186.406 21.0859H188.102V20.125C188.102 19.5208 187.914 19.0469 187.539 18.7031 187.169 18.3542 186.628 18.1797 185.914 18.1797 185.263 18.1797 184.724 18.3464 184.297 18.6797 183.87 19.013 183.656 19.4141 183.656 19.8828L182.719 19.875C182.719 19.2031 183.031 18.6224 183.656 18.1328 184.281 17.638 185.049 17.3906 185.961 17.3906 186.904 17.3906 187.646 17.6276 188.188 18.1016 188.734 18.5703 189.016 19.2266 189.031 20.0703v4C189.031 24.888 189.117 25.5 189.289 25.9062V26h-1zM185.352 25.3281C185.977 25.3281 186.534 25.1771 187.023 24.875 187.518 24.5729 187.878 24.1693 188.102 23.6641V21.8047H186.43C185.497 21.8151 184.768 21.987 184.242 22.3203 183.716 22.6484 183.453 23.1016 183.453 23.6797 183.453 24.1536 183.628 24.5469 183.977 24.8594 184.331 25.1719 184.789 25.3281 185.352 25.3281zM192.578 26H191.641V14H192.578V26zM108.406 44.1875H114.023V45H107.438V33.625H108.406V44.1875zM118.93 45.1562C118.211 45.1562 117.56 44.9792 116.977 44.625 116.398 44.2708 115.948 43.7786 115.625 43.1484 115.302 42.513 115.141 41.8021 115.141 41.0156V40.6797C115.141 39.8672 115.297 39.1354 115.609 38.4844 115.927 37.8333 116.367 37.3229 116.93 36.9531 117.492 36.5781 118.102 36.3906 118.758 36.3906 119.784 36.3906 120.596 36.7422 121.195 37.4453 121.799 38.1432 122.102 39.099 122.102 40.3125V40.8359H116.07V41.0156C116.07 41.974 116.344 42.7734 116.891 43.4141 117.443 44.0495 118.135 44.3672 118.969 44.3672 119.469 44.3672 119.909 44.276 120.289 44.0938 120.674 43.9115 121.023 43.6198 121.336 43.2188L121.922 43.6641C121.234 44.6589 120.237 45.1562 118.93 45.1562zM118.758 37.1875C118.055 37.1875 117.461 37.4453 116.977 37.9609 116.497 38.4766 116.206 39.1693 116.102 40.0391H121.172V39.9375C121.146 39.125 120.914 38.4635 120.477 37.9531 120.039 37.4427 119.466 37.1875 118.758 37.1875zM123.547 40.6953C123.547 39.3724 123.839 38.3255 124.422 37.5547 125.01 36.7786 125.807 36.3906 126.812 36.3906 127.964 36.3906 128.839 36.849 129.438 37.7656L129.484 36.5469h.875V44.8281C130.359 45.9167 130.055 46.7786 129.445 47.4141 128.836 48.0495 128.01 48.3672 126.969 48.3672 126.38 48.3672 125.818 48.2344 125.281 47.9688 124.75 47.7083 124.331 47.3594 124.023 46.9219L124.547 46.3594C125.208 47.1719 125.995 47.5781 126.906 47.5781 127.688 47.5781 128.297 47.3464 128.734 46.8828 129.172 46.4245 129.398 45.7865 129.414 44.9688V43.9062C128.815 44.7396 127.943 45.1562 126.797 45.1562 125.818 45.1562 125.031 44.7656 124.438 43.9844 123.844 43.2031 123.547 42.1484 123.547 40.8203v-.125zM124.492 40.8594C124.492 41.9375 124.708 42.7891 125.141 43.4141 125.573 44.0339 126.182 44.3438 126.969 44.3438 128.12 44.3438 128.935 43.8281 129.414 42.7969V38.8672C129.195 38.3255 128.88 37.9141 128.469 37.6328 128.057 37.3464 127.562 37.2031 126.984 37.2031 126.198 37.2031 125.586 37.513 125.148 38.1328 124.711 38.7474 124.492 39.6562 124.492 40.8594zM138.133 45C138.039 44.7344 137.979 44.3411 137.953 43.8203 137.625 44.2474 137.206 44.5781 136.695 44.8125 136.19 45.0417 135.654 45.1562 135.086 45.1562 134.273 45.1562 133.615 44.9297 133.109 44.4766 132.609 44.0234 132.359 43.4505 132.359 42.7578 132.359 41.9349 132.701 41.2839 133.383 40.8047 134.07 40.3255 135.026 40.0859 136.25 40.0859H137.945V39.125C137.945 38.5208 137.758 38.0469 137.383 37.7031 137.013 37.3542 136.471 37.1797 135.758 37.1797 135.107 37.1797 134.568 37.3464 134.141 37.6797 133.714 38.013 133.5 38.4141 133.5 38.8828L132.562 38.875C132.562 38.2031 132.875 37.6224 133.5 37.1328 134.125 36.638 134.893 36.3906 135.805 36.3906 136.747 36.3906 137.49 36.6276 138.031 37.1016 138.578 37.5703 138.859 38.2266 138.875 39.0703v4C138.875 43.888 138.961 44.5 139.133 44.9062V45h-1zM135.195 44.3281C135.82 44.3281 136.378 44.1771 136.867 43.875 137.362 43.5729 137.721 43.1693 137.945 42.6641V40.8047H136.273C135.341 40.8151 134.612 40.987 134.086 41.3203 133.56 41.6484 133.297 42.1016 133.297 42.6797 133.297 43.1536 133.471 43.5469 133.82 43.8594 134.174 44.1719 134.633 44.3281 135.195 44.3281zM142.422 45H141.484V33H142.422V45zM157.133 41.4531C157.003 42.651 156.573 43.5677 155.844 44.2031 155.12 44.8385 154.154 45.1562 152.945 45.1562 152.102 45.1562 151.354 44.9453 150.703 44.5234 150.057 44.1016 149.557 43.5052 149.203 42.7344 148.849 41.9583 148.669 41.0729 148.664 40.0781V38.6016C148.664 37.5911 148.841 36.6953 149.195 35.9141 149.549 35.1328 150.057 34.5312 150.719 34.1094 151.385 33.6823 152.151 33.4688 153.016 33.4688 154.234 33.4688 155.195 33.7995 155.898 34.4609 156.607 35.1172 157.018 36.026 157.133 37.1875H156.164C155.924 35.2552 154.875 34.2891 153.016 34.2891 151.984 34.2891 151.161 34.6745 150.547 35.4453 149.938 36.2161 149.633 37.2812 149.633 38.6406V40.0312C149.633 41.3438 149.93 42.3906 150.523 43.1719 151.122 43.9531 151.93 44.3438 152.945 44.3438 153.951 44.3438 154.708 44.1042 155.219 43.625 155.729 43.1406 156.044 42.4167 156.164 41.4531H157.133zM162.523 45.1562C161.805 45.1562 161.154 44.9792 160.57 44.625 159.992 44.2708 159.542 43.7786 159.219 43.1484 158.896 42.513 158.734 41.8021 158.734 41.0156V40.6797C158.734 39.8672 158.891 39.1354 159.203 38.4844 159.521 37.8333 159.961 37.3229 160.523 36.9531 161.086 36.5781 161.695 36.3906 162.352 36.3906 163.378 36.3906 164.19 36.7422 164.789 37.4453 165.393 38.1432 165.695 39.099 165.695 40.3125V40.8359H159.664V41.0156C159.664 41.974 159.938 42.7734 160.484 43.4141 161.036 44.0495 161.729 44.3672 162.562 44.3672 163.062 44.3672 163.503 44.276 163.883 44.0938 164.268 43.9115 164.617 43.6198 164.93 43.2188L165.516 43.6641C164.828 44.6589 163.831 45.1562 162.523 45.1562zM162.352 37.1875C161.648 37.1875 161.055 37.4453 160.57 37.9609 160.091 38.4766 159.799 39.1693 159.695 40.0391H164.766V39.9375C164.74 39.125 164.508 38.4635 164.07 37.9531 163.633 37.4427 163.06 37.1875 162.352 37.1875zM168.406 36.5469 168.438 37.9922C168.755 37.4714 169.151 37.0755 169.625 36.8047 170.099 36.5286 170.622 36.3906 171.195 36.3906 172.102 36.3906 172.776 36.6458 173.219 37.1562 173.661 37.6667 173.885 38.4323 173.891 39.4531V45H172.961V39.4453C172.956 38.6901 172.794 38.1276 172.477 37.7578 172.164 37.388 171.661 37.2031 170.969 37.2031 170.391 37.2031 169.878 37.3854 169.43 37.75 168.987 38.1094 168.659 38.5964 168.445 39.2109V45H167.516V36.5469H168.406zM177.766 34.3828V36.5469h1.75V37.3125h-1.75V42.9453C177.766 43.4141 177.849 43.763 178.016 43.9922 178.188 44.2214 178.471 44.3359 178.867 44.3359 179.023 44.3359 179.276 44.3099 179.625 44.2578L179.664 45.0234C179.419 45.112 179.086 45.1562 178.664 45.1562 178.023 45.1562 177.557 44.9714 177.266 44.6016 176.974 44.2266 176.828 43.6771 176.828 42.9531V37.3125H175.273V36.5469H176.828V34.3828H177.766zM184.727 45.1562C184.008 45.1562 183.357 44.9792 182.773 44.625 182.195 44.2708 181.745 43.7786 181.422 43.1484 181.099 42.513 180.938 41.8021 180.938 41.0156V40.6797C180.938 39.8672 181.094 39.1354 181.406 38.4844 181.724 37.8333 182.164 37.3229 182.727 36.9531 183.289 36.5781 183.898 36.3906 184.555 36.3906 185.581 36.3906 186.393 36.7422 186.992 37.4453 187.596 38.1432 187.898 39.099 187.898 40.3125V40.8359H181.867V41.0156C181.867 41.974 182.141 42.7734 182.688 43.4141 183.24 44.0495 183.932 44.3672 184.766 44.3672 185.266 44.3672 185.706 44.276 186.086 44.0938 186.471 43.9115 186.82 43.6198 187.133 43.2188L187.719 43.6641C187.031 44.6589 186.034 45.1562 184.727 45.1562zM184.555 37.1875C183.852 37.1875 183.258 37.4453 182.773 37.9609 182.294 38.4766 182.003 39.1693 181.898 40.0391H186.969V39.9375C186.943 39.125 186.711 38.4635 186.273 37.9531 185.836 37.4427 185.263 37.1875 184.555 37.1875zM193.625 37.3438C193.427 37.3073 193.216 37.2891 192.992 37.2891 192.409 37.2891 191.914 37.4531 191.508 37.7812 191.107 38.1042 190.82 38.5755 190.648 39.1953V45H189.719V36.5469H190.633L190.648 37.8906C191.143 36.8906 191.938 36.3906 193.031 36.3906 193.292 36.3906 193.497 36.4245 193.648 36.4922L193.625 37.3438z" fill="#3b1d8f"/></svg>