<svg width="14" height="14" viewBox="0 0 14 14" fill="none" xmlns="http://www.w3.org/2000/svg">
<path fill-rule="evenodd" clip-rule="evenodd" d="M3.0625 2.33366C3.0625 1.4477 3.78071 0.729492 4.66667 0.729492H9.33333C10.2193 0.729492 10.9375 1.4477 10.9375 2.33366V11.667C10.9375 12.553 10.2193 13.2712 9.33333 13.2712H4.66667C3.78071 13.2712 3.0625 12.553 3.0625 11.667V2.33366ZM4.66667 1.60449C4.26396 1.60449 3.9375 1.93095 3.9375 2.33366V11.667C3.9375 12.0697 4.26396 12.3962 4.66667 12.3962H9.33333C9.73607 12.3962 10.0625 12.0697 10.0625 11.667V2.33366C10.0625 1.93095 9.73607 1.60449 9.33333 1.60449H4.66667Z" fill="#3A3DDF"/>
<path fill-rule="evenodd" clip-rule="evenodd" d="M5.25 0.729492C5.00838 0.729492 4.8125 0.92537 4.8125 1.16699V1.75033C4.8125 2.31412 5.26954 2.77116 5.83333 2.77116H8.16667C8.73046 2.77116 9.1875 2.31412 9.1875 1.75033V1.16699C9.1875 0.92537 8.99162 0.729492 8.75 0.729492H5.25Z" fill="#3A3DDF"/>
</svg>
